<svg id="Capa_1" enable-background="new 0 0 510.328 510.328" height="512" viewBox="0 0 510.328 510.328" width="512" xmlns="http://www.w3.org/2000/svg"><g><path d="m494.167 146.217 3.644-2.369 1.476-3.483 3.477-1.954v-39.704c0-17.99-14.59-32.58-32.59-32.58h-430.15c-18 0-32.59 14.59-32.59 32.58v45.823l24.548 7.86-5.007 15.591-5.067-.255 46.698 64.529h370.698l53.992-71.917z" fill="#f37c7c"/><path d="m494.167 146.217 3.644-2.369 1.476-3.483 3.477-1.954v-39.704c0-17.99-14.59-32.58-32.59-32.58h-430.15c-18 0-32.59 14.59-32.59 32.58v45.823l24.548 7.86-5.007 15.591-5.067-.255 46.698 64.529h370.698l53.992-71.917z" fill="#f37c7c"/><path d="m40.024 66.127c-18 0-32.59 14.59-32.59 32.58v45.823l24.548 7.86-5.007 15.591-5.067-.255 46.698 64.529h1.034v-91.69-18.14c0-7.687 7.91-12.934 14.928-9.796 4.595 2.055 9.698 3.17 15.064 3.101 19.759-.254 35.431-16.833 35.431-36.594v-13.009z" fill="#ee6161"/><path d="m502.764 444.922c0 24.119-14.59 38.709-32.59 38.709h-430.15c-18 0-32.59-14.59-32.59-32.59v-306.51l495.33-6.119z" fill="#f9f7f8"/><path d="m69.639 143.762-62.205.768v306.51c0 18 14.59 32.59 32.59 32.59h29.615z" fill="#efedef"/><g><ellipse cx="255.164" cy="297.641" fill="#b3e5ee" rx="162.368" ry="162.368" transform="matrix(.707 -.707 .707 .707 -135.728 267.605)"/><path d="m138.664 297.641c0-81.745 60.75-149.578 139.458-160.755-7.495-1.064-15.174-1.612-22.958-1.612-89.53 0-162.368 72.838-162.368 162.368s72.838 162.368 162.368 162.368c7.784 0 15.453-.552 22.948-1.616-78.708-11.179-139.448-79.007-139.448-160.753z" fill="#86d7e5"/><path d="m167.933 236.269c-12.234 17.356-19.422 38.524-19.422 61.372 0 58.903 47.75 106.653 106.653 106.653s106.653-47.75 106.653-106.653-47.75-106.653-106.653-106.653c-24.501 0-47.068 8.268-65.076 22.157" fill="#fbe98c"/><circle cx="255.164" cy="297.641" fill="#f37c7c" r="52.368"/><g><g id="XMLID_2_"><path d="m375.213 176.89c-2.936-2.921-7.685-2.91-10.606.028l-22.498 22.617c-.033.032-.069.06-.102.093l-92.23 92.72c-2.921 2.937-2.909 7.685.028 10.606 1.463 1.456 3.376 2.183 5.289 2.183 1.926 0 3.852-.737 5.317-2.211l92.139-92.628c.033-.032.069-.059.101-.092l22.59-22.71c2.921-2.936 2.908-7.685-.028-10.606z" fill="#fbe5c6"/></g></g><path d="m219.263 66.127v13.707c0 19.796 16.105 35.901 35.901 35.901s35.901-16.105 35.901-35.901v-13.707z" fill="#ee6161"/><path d="m255.164 95.735c-8.782 0-15.901-7.119-15.901-15.901v-41.274c0-8.782 7.119-15.901 15.901-15.901 8.782 0 15.901 7.119 15.901 15.901v41.274c0 8.782-7.119 15.901-15.901 15.901z" fill="#e4e1e5"/><path d="m141.262 66.127v13.707c0 19.796 16.105 35.901 35.901 35.901s35.901-16.105 35.901-35.901v-13.707z" fill="#ee6161"/><path d="m177.163 95.735c-8.782 0-15.901-7.119-15.901-15.901v-41.274c0-8.782 7.119-15.901 15.901-15.901 8.782 0 15.901 7.119 15.901 15.901v41.274c0 8.782-7.119 15.901-15.901 15.901z" fill="#e4e1e5"/><path d="m99.161 95.735c-8.782 0-15.901-7.119-15.901-15.901v-41.274c0-8.782 7.119-15.901 15.901-15.901 8.782 0 15.901 7.119 15.901 15.901v41.274c0 8.782-7.119 15.901-15.901 15.901z" fill="#e4e1e5"/><path d="m297.265 66.127v13.707c0 19.796 16.104 35.901 35.9 35.901s35.901-16.105 35.901-35.901v-13.707z" fill="#ee6161"/><path d="m333.165 95.735c8.782 0 15.901-7.119 15.901-15.901v-41.274c0-8.782-7.119-15.901-15.901-15.901-8.782 0-15.901 7.119-15.901 15.901v41.274c0 8.782 7.12 15.901 15.901 15.901z" fill="#e4e1e5"/><path d="m447.068 66.127h-71.803v14.546c0 19.796 16.105 35.901 35.901 35.901s35.901-16.105 35.901-35.901v-14.546z" fill="#ee6161"/><path d="m411.167 96.574c8.782 0 15.901-7.119 15.901-15.901v-41.274c0-8.782-7.119-15.901-15.901-15.901-8.782 0-15.901 7.119-15.901 15.901v41.274c0 8.782 7.119 15.901 15.901 15.901z" fill="#e4e1e5"/></g><path d="m387.604 164.457-12.41-30.39c-1.87-4.58-7.81-5.77-11.3-2.27l-29.7 29.82c-1.95 1.97-2.55 4.92-1.5 7.49l14.62 35.8h23.237l18.855-24.817z" fill="#f5c274"/><g><path d="m418.044 176.747c4.59 1.85 5.8 7.78 2.31 11.28l-29.69 29.82c-1.96 1.97-4.91 2.57-7.49 1.53l-35.84-14.46 22.59-22.71.04-.04 17.64-17.71z" fill="#f3b658"/></g></g><g><path d="m404.688 235.939c-3.897 1.401-5.922 5.697-4.521 9.595 6 16.695 9.043 34.227 9.043 52.107 0 23.1-4.993 45.317-14.84 66.037-1.777 3.741-.186 8.215 3.555 9.993 1.04.494 2.136.728 3.215.728 2.805 0 5.495-1.581 6.779-4.283 10.81-22.747 16.291-47.13 16.291-72.475 0-19.615-3.34-38.854-9.928-57.181-1.4-3.898-5.699-5.918-9.594-4.521z"/><path d="m388.896 388.594c-3.312-2.488-8.014-1.821-10.502 1.491-14.062 18.713-32.48 34.217-53.266 44.833-21.784 11.127-45.323 16.769-69.965 16.769-84.941 0-154.046-69.104-154.046-154.046s69.104-154.046 154.046-154.046c17.565 0 34.812 2.942 51.261 8.746 3.904 1.378 8.189-.671 9.567-4.578 1.379-3.906-.671-8.19-4.577-9.568-18.056-6.37-36.981-9.6-56.251-9.6-93.212 0-169.046 75.834-169.046 169.046s75.833 169.046 169.046 169.046c27.036 0 52.871-6.194 76.787-18.41 22.806-11.648 43.012-28.655 58.436-49.181 2.489-3.312 1.821-8.013-1.49-10.502z"/><path d="m420.856 169.792-27.509-11.103-11.215-27.462c-1.831-4.484-5.759-7.729-10.508-8.681-4.745-.95-9.623.528-13.042 3.96l-29.697 29.82c-4.097 4.113-5.325 10.242-3.131 15.616l12.749 31.217-8.4 8.444c-20.066-17.501-46.286-28.116-74.94-28.116-25.453 0-49.54 8.202-69.657 23.719-3.28 2.53-3.888 7.239-1.358 10.519 2.529 3.28 7.24 3.889 10.519 1.358 17.469-13.474 38.388-20.596 60.496-20.596 24.532 0 47.008 8.96 64.338 23.773l-27.831 27.98c-10.113-7.807-22.772-12.467-36.506-12.467-33.011 0-59.868 26.856-59.868 59.868s26.856 59.868 59.868 59.868c33.011 0 59.867-26.856 59.867-59.868 0-13.881-4.762-26.663-12.72-36.828l27.834-27.981c15.053 17.392 24.171 40.056 24.171 64.809 0 54.673-44.479 99.153-99.152 99.153s-99.153-44.48-99.153-99.153c0-20.568 6.242-40.296 18.052-57.052 2.386-3.386 1.576-8.065-1.81-10.451-3.385-2.386-8.065-1.577-10.451 1.81-13.602 19.298-20.792 42.015-20.792 65.693 0 62.944 51.209 114.153 114.153 114.153 62.943 0 114.152-51.209 114.152-114.153 0-28.903-10.803-55.327-28.577-75.459l8.405-8.449 31.226 12.603c1.755.708 3.588 1.053 5.403 1.053 3.757 0 7.439-1.474 10.2-4.246l29.699-29.821c3.417-3.432 4.878-8.313 3.906-13.058s-4.23-8.659-8.721-10.472zm-52.273-32.069 10.196 24.966-14.126 14.184c-.002.002-.004.004-.007.006l-.533.536-14.128 14.185-10.195-24.966zm-68.552 159.918c0 24.74-20.127 44.868-44.867 44.868s-44.868-20.127-44.868-44.868 20.127-44.868 44.868-44.868c9.608 0 18.513 3.046 25.821 8.208l-31.205 31.37c-2.921 2.937-2.909 7.686.028 10.607 1.463 1.456 3.376 2.183 5.29 2.183 1.926 0 3.852-.737 5.317-2.21l31.216-31.381c5.279 7.358 8.4 16.364 8.4 26.091zm85.591-85.361-24.996-10.089 14.483-14.559 14.298-14.357 25.009 10.094z"/><path d="m470.239 58.623h-35.671v-19.224c0-12.903-10.498-23.401-23.401-23.401s-23.401 10.498-23.401 23.401v19.225h-31.199v-19.225c0-12.903-10.498-23.401-23.401-23.401s-23.4 10.498-23.4 23.401v19.225h-31.199v-19.225c0-12.903-10.498-23.401-23.401-23.401s-23.401 10.498-23.401 23.401v19.225h-31.2v-19.225c0-12.903-10.498-23.401-23.401-23.401s-23.401 10.498-23.401 23.401v19.225h-31.2v-19.225c0-12.903-10.498-23.401-23.401-23.401s-23.402 10.497-23.402 23.401v19.225h-35.671c-22.105-.001-40.089 17.983-40.089 40.088v355.529c0 22.105 17.984 40.089 40.089 40.089h430.15c22.105 0 40.089-17.984 40.089-40.089v-355.529c0-22.105-17.983-40.089-40.089-40.089zm-67.473-19.224c0-4.632 3.769-8.401 8.401-8.401s8.401 3.769 8.401 8.401v41.274c0 4.632-3.769 8.401-8.401 8.401s-8.401-3.769-8.401-8.401zm-78.001 0c0-4.632 3.769-8.401 8.4-8.401 4.633 0 8.401 3.769 8.401 8.401v41.274c0 4.632-3.769 8.401-8.401 8.401s-8.4-3.769-8.4-8.401zm-78.002 0c0-4.632 3.769-8.401 8.401-8.401 4.633 0 8.401 3.769 8.401 8.401v41.274c0 4.632-3.769 8.401-8.401 8.401s-8.401-3.769-8.401-8.401zm-78.001 0c0-4.632 3.769-8.401 8.401-8.401s8.401 3.769 8.401 8.401v41.274c0 4.632-3.769 8.401-8.401 8.401s-8.401-3.769-8.401-8.401zm-78.002 0c0-4.632 3.769-8.401 8.401-8.401s8.401 3.769 8.401 8.401v41.274c0 4.632-3.769 8.401-8.401 8.401s-8.401-3.769-8.401-8.401zm379.479 439.931h-430.15c-13.834 0-25.089-11.255-25.089-25.089v-299.013h121.077c4.142 0 7.5-3.358 7.5-7.5s-3.358-7.5-7.5-7.5h-121.077v-41.516c0-13.834 11.255-25.089 25.089-25.089h35.671v7.05c0 12.903 10.498 23.401 23.401 23.401s23.401-10.498 23.401-23.401v-7.05h31.2v7.05c0 12.903 10.498 23.401 23.401 23.401s23.401-10.498 23.401-23.401v-7.05h31.2v7.05c0 12.903 10.498 23.401 23.401 23.401s23.401-10.498 23.401-23.401v-7.05h31.199v7.05c0 12.903 10.497 23.401 23.4 23.401s23.401-10.498 23.401-23.401v-7.05h31.199v7.05c0 12.903 10.498 23.401 23.401 23.401s23.401-10.498 23.401-23.401v-7.05h35.671c13.834 0 25.089 11.255 25.089 25.089v41.516h-72.954c-4.143 0-7.5 3.358-7.5 7.5s3.357 7.5 7.5 7.5h72.954v299.014c.001 13.833-11.254 25.088-25.088 25.088z"/></g></svg>