<svg id="Layer_1" enable-background="new 0 0 512 512" height="512" viewBox="0 0 512 512" width="512" xmlns="http://www.w3.org/2000/svg"><path d="m111.394 464.772 291.198-1.448c59.74-44.679 98.408-115.986 98.408-196.324 0-135.31-109.69-245-245-245s-245 109.69-245 245c0 81.22 39.532 153.196 100.394 197.772z" fill="#68c37d"/><path d="m178.245 441.536c24.432 8.843 50.573 13.645 77.755 13.645 28.755 0 56.346-5.372 81.978-15.219 1.293-.497 2.616-.835 3.949-1.036-6.932-15.639-9.064-35.722-9.548-50.947-19.983 25.18-42.745 42.334-73.676 42.334-30.928 0-53.688-17.149-73.676-42.334-.502 15.786-2.775 36.794-10.334 52.656 1.196.183 2.386.479 3.552.901z" fill="#fbbc8d"/><path d="m257.308 430.29c-30.216-.51-52.595-17.507-72.281-42.31-.503 15.786-2.775 36.794-10.334 52.656 1.196.182 2.386.478 3.552.9 24.432 8.843 50.573 13.645 77.755 13.645.881 0 1.757-.02 2.635-.031-6.116-8.407-4.167-18.067-1.327-24.86z" fill="#fca870"/><path d="m144.818 289.4s-6.476-40.985.983-65.394c-6.768-4.511-19.844-6.714-25.724-.965-12.04 11.771-3.218 29.546 1.003 40.774 1.296 3.447 2.132 6.934 2.511 10.428.821 7.59 4.937 18.7 22.001 18.438-.258-1.092-.523-2.169-.774-3.281z" fill="#f9bd91"/><path d="m142.276 259.707c-2.46 4.294-7.077 7.194-12.381 7.194-3.326 0-6.379-1.147-8.805-3.055 1.29 3.438 2.124 6.915 2.501 10.398.821 7.59 4.937 18.7 22.001 18.438-.258-1.094-.522-2.17-.774-3.282 0 0-2.139-13.542-2.542-29.693z" fill="#fca870"/><path d="m398.007 223.042c-5.881-5.749-18.957-3.547-25.724.965 7.459 24.408.983 65.394.983 65.394-.252 1.112-.516 2.188-.774 3.282 17.065.262 21.18-10.848 22.002-18.438.378-3.494 1.214-6.98 2.51-10.428 4.221-11.229 13.043-29.004 1.003-40.775z" fill="#f9bd91"/><path d="m388.084 266.901c-5.234 0-9.797-2.827-12.28-7.028-.413 16.078-2.538 29.528-2.538 29.528-.252 1.112-.516 2.188-.774 3.282 17.065.262 21.18-10.848 22.002-18.438.378-3.494 1.214-6.98 2.51-10.428.01-.026.02-.053.03-.079-2.449 1.975-5.56 3.163-8.95 3.163z" fill="#fca870"/><path d="m131.585 198.806c-.62 8.991-.946 18.141-.946 27.426 0 124.896 57.705 204.171 128.888 204.171s128.887-79.275 128.887-204.171c0-9.285-.326-18.435-.946-27.426-39.418 0-221.06 0-255.883 0z" fill="#384051"/><path d="m364.334 209.426c-2.074-3.254-3.434-6.869-4.097-10.62-52.56 0-151.464 0-202.371 0-.665 3.751-2.042 7.365-4.118 10.622-1.967 3.086-3.54 6.351-4.798 9.584-4.082 10.486-5.272 21.858-3.743 32.992l5.68 41.367c0 59.471 31.746 99.893 58.75 120.863 14.095 10.946 31.49 16.891 49.404 16.891s35.309-5.945 49.404-16.891c27.004-20.97 58.75-61.392 58.75-120.863l5.679-41.358c1.514-11.026.366-22.286-3.621-32.69-1.278-3.335-2.889-6.712-4.919-9.897z" fill="#f9cfa9"/><path d="m256.819 414.233c-19.229-20.97-41.835-61.392-41.835-120.863l-4.045-41.367c-1.089-11.135-.242-22.507 2.665-32.992.896-3.232 2.017-6.498 3.417-9.584 1.478-3.256 2.459-6.87 2.932-10.622-23.632 0-45.428 0-62.086 0-.665 3.751-2.042 7.365-4.118 10.622-1.966 3.086-3.539 6.351-4.798 9.584-4.081 10.486-5.271 21.858-3.742 32.992l5.68 41.367c0 59.471 31.746 99.893 58.75 120.863 14.095 10.946 31.49 16.891 49.404 16.891 6.531 0 12.991-.799 19.25-2.334-7.768-2.675-15.096-7.602-21.474-14.557z" fill="#fbbc8d"/><path d="m381.105 227.183c-8.559-5.629-22.899-12.861-40.077-12.861-28.122 0-48.744 15.115-80.615 15.115v-.285h-.001-.001v.285c-31.871 0-52.493-15.115-80.614-15.115-17.178 0-31.518 7.232-40.077 12.861-.472.311-.964.55-1.465.745v13.021c.029 5.439 2.137 9.504 2.137 9.504 8.933 15.117 50.848 34.013 70.775 38.48 19.927 4.466 27.486.344 33.67-17.866 1.626-4.789 3.475-8.952 5.315-12.487 4.311-8.28 16.209-8.28 20.52 0 1.841 3.535 3.689 7.699 5.315 12.487 6.184 18.209 13.743 22.332 33.67 17.866s61.842-23.363 70.775-38.48c0 0 2.108-4.065 2.137-9.504v-13.021c-.5-.195-.992-.435-1.464-.745z" fill="#4aa6e2"/><path d="m210.806 222.507c.931-.508 1.478-1.51 1.438-2.545-10.417-3.042-20.787-5.641-32.446-5.641-17.179 0-31.519 7.233-40.078 12.862-.472.311-.964.55-1.465.745v13.021c.029 5.439 2.137 9.504 2.137 9.504 8.933 15.117 50.848 34.013 70.775 38.48 2.654.595 5.083 1.032 7.324 1.309-16.745-8.379-12.107-31.402-15.658-46.856-2.999-13.057 4.19-18.816 7.973-20.879z" fill="#3e93d7"/><path d="m388.047 214.541c-9.545-3.446-27.745-8.923-47.019-8.923-28.122 0-48.744 15.817-80.615 15.817h-.001c-31.871 0-52.494-15.817-80.615-15.817-19.274 0-37.475 5.477-47.019 8.923-3.932 1.42-6.067 5.654-4.87 9.659 1.502 5.025 7.429 7.238 11.812 4.357 8.559-5.629 22.899-12.861 40.077-12.861 28.122 0 48.744 15.115 80.615 15.115h.001c31.871 0 52.493-15.115 80.615-15.115 17.178 0 31.518 7.232 40.077 12.861 4.383 2.882 10.309.668 11.812-4.357 1.197-4.005-.939-8.239-4.87-9.659z" fill="#f7f3f1"/><path d="m132.778 214.541c-3.932 1.42-6.067 5.654-4.87 9.659 1.502 5.025 7.429 7.238 11.812 4.357 8.559-5.629 22.899-12.862 40.078-12.862 11.559 0 21.852 2.555 32.179 5.563.261-.551.346-1.185.202-1.806-.5-2.15.103-3.727.944-4.823.62-.808.763-1.825.462-2.696-10.871-3.357-21.628-6.315-33.787-6.315-19.275 0-37.475 5.477-47.02 8.923z" fill="#cde2ff"/><path d="m273.534 268.777c-1.603 0-3.127-.941-3.795-2.508-.86-2.018-1.776-3.965-2.724-5.785-1.301-2.499-3.77-3.991-6.603-3.991-2.834 0-5.302 1.492-6.603 3.991-.947 1.819-1.864 3.766-2.724 5.784-.892 2.095-3.313 3.07-5.408 2.177-2.095-.892-3.07-3.314-2.178-5.409.943-2.213 1.951-4.354 2.996-6.361 2.707-5.199 8.04-8.429 13.917-8.429s11.209 3.23 13.917 8.428c1.046 2.008 2.053 4.148 2.996 6.361.892 2.095-.083 4.517-2.178 5.409-.526.226-1.074.333-1.613.333z" fill="#384051"/><path d="m260.413 4.242c-169.608 0-146.548 163.833-146.548 163.833l11.923 18.698h269.248l11.923-18.698c.001 0 23.061-163.833-146.546-163.833z" fill="#2d3243"/><path d="m406.96 168.075s.502-3.569.813-9.651c-.288-.173-.584-.334-.897-.466-3.03-1.282-7.345-3.855-9.221-8.554-1.035-2.593-3.44-4.387-6.232-4.463-4.958-.135-11.86-2.228-13.647-12.361-.508-2.883-2.835-5.115-5.721-5.6-4.487-.755-10.58-3.344-13.059-11.565-1.089-3.614-4.727-5.728-8.396-4.84-5.414 1.311-12.332-.327-15.149-15.094-.67-3.515-3.849-5.949-7.415-5.65-5.428.455-13.06-1.198-17.952-11.992-1.168-2.578-3.859-4.157-6.681-3.939-5.522.426-14.398-.413-19.603-8.816-1.798-2.902-5.442-4.109-8.571-2.743-3.673 1.603-8.826 3.211-14.818 3.282-5.992-.071-11.144-1.678-14.817-3.281-3.129-1.366-6.773-.159-8.571 2.743-5.204 8.403-14.081 9.242-19.603 8.816-2.822-.218-5.513 1.362-6.681 3.939-4.892 10.794-12.524 12.447-17.952 11.992-3.566-.299-6.745 2.135-7.415 5.65-2.817 14.768-9.736 16.405-15.149 15.094-3.669-.888-7.307 1.226-8.396 4.84-2.479 8.222-8.572 10.811-13.059 11.565-2.886.485-5.213 2.717-5.721 5.6-1.787 10.134-8.689 12.226-13.647 12.361-2.791.076-5.197 1.87-6.232 4.463-1.875 4.699-6.19 7.272-9.22 8.554-.313.133-.61.293-.896.466.311 6.082.813 9.651.813 9.651l11.923 18.698h269.249z" fill="#384051"/><path d="m120.416 185.024h51.762l-1.1-.73c-9.207-6.105-17.199-12.377-24.139-18.602l-32.438-4.455c-4.195-.576-7.698 3.17-6.522 7.071 2.514 8.333 8.113 14.839 10.491 17.334.532-.382 1.196-.618 1.946-.618z" fill="#aad1f7"/><path d="m374.068 39.984c-1.127-3.166-5.505-11.883-19.93-13.831-3.195-.431-6.106 1.825-6.338 4.909-1.195 15.915-7.884 70.138-47.068 107.682-1.096 1.05-2.765 1.31-4.036.46-1.084-.725-1.549-2.032-1.165-3.245 15.982-50.538 14.385-112.339 13.887-124.524-.062-1.512-.675-2.952-1.723-4.083-6.324-6.822-14.425-7.682-19.931-7.266-3.528.267-6.222 3.133-6.194 6.524.172 21.088.1 98.585-9.653 131.548-.446 1.508-1.895 2.537-3.531 2.537h-15.946c-1.636 0-3.085-1.029-3.531-2.537-9.753-32.963-9.825-110.46-9.653-131.548.028-3.391-2.666-6.257-6.194-6.524-5.506-.416-13.607.443-19.931 7.266-1.048 1.131-1.661 2.571-1.723 4.083-.498 12.185-2.096 73.985 13.886 124.524.434 1.371-.217 2.862-1.621 3.498-1.193.54-2.632.196-3.566-.698-39.196-37.544-45.888-91.779-47.083-107.696-.232-3.084-3.143-5.341-6.338-4.909-14.425 1.947-18.802 10.665-19.93 13.831-.239.672-.329 1.385-.275 2.094 5.428 70.984 42.512 107.263 59.413 120.268 4.836 3.721 10.857 5.729 17.059 5.729h74.916c6.202 0 12.223-2.008 17.059-5.729 16.901-13.005 53.986-49.284 59.413-120.268.056-.709-.034-1.423-.273-2.095z" fill="#e7387f"/><path d="m314.929 162.346c10.13-7.795 27.509-23.966 40.979-50.949-1.531-.935-3.413-1.281-5.307-.823-5.414 1.311-12.332-.327-15.149-15.094-.323-1.695-1.233-3.133-2.484-4.14-6.991 16.189-17.222 33.02-32.235 47.405-1.096 1.051-2.765 1.31-4.036.459-1.085-.725-1.549-2.032-1.165-3.245 6.285-19.873 9.85-41.486 11.833-61.14-1.171-.69-2.549-1.03-3.96-.921-5.522.426-14.398-.413-19.603-8.816-.761-1.228-1.854-2.148-3.096-2.703-1.119 27.696-3.565 58.124-8.789 75.779-.446 1.508-1.895 2.537-3.531 2.537h-15.946c-1.636 0-3.085-1.029-3.531-2.537-5.223-17.655-7.669-48.084-8.789-75.779-1.243.554-2.336 1.475-3.097 2.703-5.204 8.403-14.081 9.242-19.603 8.816-1.41-.109-2.788.231-3.96.921 1.984 19.654 5.549 41.267 11.834 61.14.434 1.371-.216 2.862-1.621 3.498-1.193.54-2.632.196-3.565-.698-15.021-14.388-25.256-31.225-32.251-47.42-1.251 1.007-2.162 2.446-2.485 4.141-2.817 14.768-9.736 16.405-15.149 15.094-1.894-.458-3.776-.112-5.307.823 13.47 26.983 30.848 43.154 40.979 50.949 4.836 3.721 10.857 5.729 17.059 5.729h74.916c6.202 0 12.224-2.008 17.059-5.729z" fill="#e5646e"/><path d="m406.325 161.237-32.439 4.455c-6.94 6.226-14.931 12.497-24.138 18.602l-1.101.73h51.762c.75 0 1.413.236 1.945.618 2.379-2.495 7.977-9.001 10.491-17.334 1.177-3.901-2.326-7.647-6.52-7.071z" fill="#cde2ff"/><path d="m125.428 91.737c-.706-2.141-2.765-3.601-5.109-3.601-2.348 0-4.425 1.469-5.121 3.618-1.056 3.261-1.992 6.509-2.82 9.725-2.879 11.184-.842 23.053 5.668 32.736 10.174 15.132 26.552 33.59 52.509 50.802h49.203c-64.291-29.498-86.604-69.854-94.33-93.28z" fill="#e7387f"/><path d="m170.556 185.016h49.204c-36.965-16.96-60.05-37.509-74.468-56.366-1.145 1.006-1.968 2.365-2.244 3.929-1.787 10.134-8.689 12.226-13.647 12.361-1.022.028-1.99.29-2.86.733 10.141 12.502 24.314 26.28 44.015 39.343z" fill="#e5646e"/><path d="m408.446 101.478c-.828-3.215-1.763-6.463-2.819-9.725-.696-2.149-2.772-3.618-5.121-3.618-2.344 0-4.403 1.461-5.109 3.601-7.726 23.426-30.039 63.783-94.331 93.28h49.203c25.957-17.212 42.336-35.67 52.509-50.802 6.511-9.683 8.547-21.552 5.668-32.736z" fill="#e7387f"/><path d="m301.066 185.016h49.203c19.701-13.064 33.874-26.842 44.015-39.342-.87-.443-1.838-.706-2.86-.734-4.958-.135-11.86-2.228-13.647-12.361-.275-1.564-1.098-2.923-2.244-3.929-14.418 18.858-37.503 39.407-74.467 56.366z" fill="#e5646e"/><path d="m400.409 184.138c-15.557 0-264.436 0-279.993 0-2.507 0-4.076 2.598-2.828 4.681l6.11 10.191c.581.97 1.66 1.568 2.828 1.568h267.774c1.168 0 2.246-.598 2.828-1.568l6.11-10.191c1.248-2.083-.322-4.681-2.829-4.681z" fill="#f7f3f1"/><path d="m294.435 84.038h-68.045c-9.667 0-17.504 7.837-17.504 17.504 0 9.667 7.837 17.504 17.504 17.504h68.045c9.667 0 17.504-7.837 17.504-17.504 0-9.667-7.837-17.504-17.504-17.504z" fill="#cde2ff"/><path d="m256 101.542c0-9.667 7.837-17.504 17.504-17.504h-47.114c-9.667 0-17.504 7.837-17.504 17.504 0 9.667 7.837 17.504 17.504 17.504h47.114c-9.667 0-17.504-7.837-17.504-17.504z" fill="#aad1f7"/><path d="m255.92 495.863v.001c0-17.499 8.957-33.216 22.838-42.315-7.494.692-15.083 1.057-22.758 1.057-7.763 0-15.438-.374-23.016-1.082 13.931 9.093 22.936 24.798 22.936 42.339z" fill="#6936ba"/><path d="m178.241 435.49c-5.853-1.959-12.278-1.107-17.372 2.379-8 5.474-20.936 13.765-33.977 19.761-5.685 1.907-11.301 3.958-16.861 6.149 40.771 30.292 91.274 48.221 145.969 48.221v-20.918c0-22.917-16.622-42.46-39.247-46.11-13.221-2.133-26.087-5.325-38.512-9.482z" fill="#feac00"/><path d="m337.978 434.036c-13.763 4.888-28.09 8.583-42.86 10.957-22.578 3.629-39.118 23.222-39.118 46.089v20.918c55.566 0 106.802-18.509 147.905-49.683-21.168-7.687-38.233-18.768-47.712-25.694-5.259-3.843-12.077-4.767-18.215-2.587z" fill="#ffe400"/><path d="m411.068 361.72s-22.696 36.175 32.915 62.359c35.582-42.526 57.017-97.292 57.017-157.079 0-50.359-15.211-97.156-41.265-136.084-18.392 12.683-40.283 37.543-24.55 79.388 20.645 54.907-1.104 116.731-24.117 151.416z" fill="#2daf86"/><path d="m310.667 483.295c-8.5-32 11.438-44.227 11.438-44.227v-.001c-8.806 2.464-17.811 4.451-26.986 5.925-22.579 3.63-39.119 23.222-39.119 46.09v20.918c25.261 0 49.623-3.837 72.549-10.938-7.852-1.604-14.886-6.489-17.882-17.767z" fill="#fdca00"/><path d="m120.416 184.138c-2.507 0-4.077 2.598-2.828 4.681l6.11 10.191c.581.97 1.66 1.568 2.828 1.568h93.211c-7.188-5.968-4.339-12.835-1.953-16.441-49.53.001-91.285.001-97.368.001z" fill="#cde2ff"/></svg>