<svg id="Capa_1" enable-background="new 0 0 512 512" height="512" viewBox="0 0 512 512" width="512" xmlns="http://www.w3.org/2000/svg"><g><path d="m504.5 480.504h-43.534c23.607-15.879 39.175-42.83 39.175-73.357 0-48.72-39.637-88.357-88.356-88.357-7.862 0-15.485 1.038-22.746 2.974l-8.011-22.268h2.473c12.131 0 22-9.869 22-22s-9.869-22-22-22h-3v-5.661c7.537-2.476 13-9.57 13-17.925v-25.541c0-10.406-8.466-18.873-18.873-18.873h-8.53c-6.893 0-13.02 3.705-16.313 9.381h-11.785c-4.142 0-7.5 3.358-7.5 7.5s3.358 7.5 7.5 7.5h16.91c3.638 0 6.751-2.611 7.385-6.193.327-1.847 1.926-3.188 3.802-3.188h8.53c2.135 0 3.873 1.737 3.873 3.873v20.64c-3.296-5.561-9.024-9.49-15.752-10.339-6.687-.843-13.237 1.388-17.974 6.124-1.109 1.109-2.075 2.32-2.903 3.606h-58.417l12.896-12.896c.487-.487.895-1.037 1.227-1.627h5.423c4.142 0 7.5-3.358 7.5-7.5s-3.358-7.5-7.5-7.5h-12.671l-16.294-16.294c.076-.979.115-1.965.115-2.957 0-6.157-1.458-12.086-4.195-17.408h23.332c12.407 0 22.5-10.093 22.5-22.5v-2.228c4.528-.129 8.612-2.674 10.718-6.708 2.163-4.142 1.848-9.096-.822-12.93l-9.896-14.21v-29.233c0-30.831-25.083-55.913-55.913-55.913h-12.461c-30.831 0-55.913 25.083-55.913 55.913 0 2.182.938 4.141 2.425 5.511l26.045 23.56c.769.695 1.669 1.21 2.635 1.536v10.611c0 4.378.615 8.613 1.75 12.633-6.731.481-13.326 3.281-18.46 8.416l-74.032 74.031c-.002.002-.003.003-.005.005l-22.031 22.032c-5.472 5.473-8.486 12.771-8.486 20.551s3.014 15.078 8.486 20.55l50.061 50.061-15.96 16.604c-15.191-12.323-34.533-19.719-55.572-19.719-48.719-.001-88.356 39.636-88.356 88.356 0 30.522 15.558 57.478 39.158 73.357h-31.658c-4.142 0-7.5 3.358-7.5 7.5s3.358 7.5 7.5 7.5h497c4.142 0 7.5-3.358 7.5-7.5s-3.358-7.5-7.5-7.5zm-124-210.008h3c3.86 0 7 3.14 7 7s-3.14 7-7 7h-3zm-25.122-37.094c.75-.75 2.283-1.908 4.588-1.908.289 0 .59.018.903.058 2.869.362 5.213 2.707 5.574 5.576.354 2.812-1.009 4.647-1.853 5.491-.845.843-2.686 2.205-5.493 1.851-2.868-.362-5.211-2.707-5.572-5.576-.353-2.813 1.01-4.648 1.853-5.492zm-16.628 7.998c1.47 9.41 8.968 16.752 18.469 17.951.93.117 1.857.175 2.777.175 1.879 0 3.723-.265 5.504-.735v33.046h-70.986l10.764-9.695c5.996-5.042 9.431-12.41 9.431-20.239 0-8.264-3.814-15.652-9.771-20.503zm-50.477 9.067c6.306 0 11.436 5.13 11.436 11.436 0 3.41-1.509 6.619-4.141 8.805-.077.064-.152.129-.227.196l-23.241 20.933h-24.844l5.695-5.694c2.145-2.145 2.787-5.371 1.626-8.173-1.161-2.803-3.896-4.63-6.929-4.63h-4.295v-22.873zm-81.773 68.35v82.987h-17.928v-73.365l16.73-16.73c1.067 3.666 1.188 6.78 1.198 7.108zm-5.838-51.905 17.413-17.413h10.279v37.716h-7.529c-.226-.309-.469-.609-.748-.888zm12.984 149.892c7.639 0 13.854 6.215 13.854 13.854v.838h-38.928v-14.691h25.074zm7.854-98.127c-.001-.148-.009-.516-.037-1.045l10.794-10.794h23.191l-33.948 30.578zm11.574-84.177 9.991-9.991 10.959 10.959h-14.493c-1.087-.614-2.34-.968-3.678-.968zm47.366-26.299-16.235 16.235-36.748-36.749c-2.168-2.168-3.362-5.05-3.362-8.117 0-3.066 1.194-5.949 3.362-8.117s5.051-3.362 8.117-3.362 5.949 1.194 8.117 3.362zm-42.835-94.574v-10.21h7.121v29.217c-.525-.426-1.065-.824-1.612-1.207-3.472-5.072-5.509-11.202-5.509-17.8zm73.205 7.115c-5.709 1.153-10.022 6.209-10.022 12.253v4.722c0 4.136-3.364 7.5-7.5 7.5h-24.091c-3.298 0-6.479-.51-9.47-1.452v-40.349h21.454c-.558 1.049-.877 2.245-.877 3.516v6.974c0 4.142 3.358 7.5 7.5 7.5s7.5-3.358 7.5-7.5v-6.974c0-1.271-.319-2.467-.877-3.516h6.36v.579c0 1.533.47 3.028 1.345 4.286zm-63.397-89.246h12.461c19.999 0 36.692 14.423 40.224 33.413h-44.306c-6.743-12.466-18.027-21.87-31.25-26.397 6.535-4.424 14.404-7.016 22.871-7.016zm-34.808 19.448c9.813 1.469 18.754 6.517 25.128 13.965h-30.544c.937-5.04 2.809-9.753 5.416-13.965zm5.873 28.965h82.309v8.508h-72.899zm-1.977 65.373c5.483-5.482 14.404-5.482 19.888 0l10.2 10.199c-3.412-1.562-7.148-2.39-11.013-2.39-7.073 0-13.722 2.754-18.724 7.756s-7.756 11.651-7.756 18.724 2.754 13.723 7.756 18.724l15.607 15.607-42.403 42.405-42.29-42.289zm-96.068 115.955c-2.639-2.639-4.092-6.17-4.092-9.943s1.453-7.305 4.092-9.944l16.726-16.726 28.612 28.612 18.981 18.981s0 0 .001.001l19.414 19.414-26.67 26.671zm50.064 71.277 3.076 2.775v48.493c-3.591-13.082-10.119-24.96-18.831-34.877zm-26.199 27.256c9.329 10.998 15.493 24.76 17.035 39.877h-10.078c-1.458-12.295-6.436-23.525-13.916-32.637zm-55.941 22.377c-13.785 0-25 11.215-25 25s11.215 25 25 25c11.173 0 20.656-7.368 23.849-17.5h23.924c-3.615 23.115-23.659 40.857-47.773 40.857-26.665 0-48.357-21.692-48.357-48.357 0-26.664 21.692-48.357 48.356-48.357 10.289 0 19.83 3.24 27.678 8.739l-16.564 17.233c-3.35-1.67-7.122-2.615-11.113-2.615zm10 25c0 5.514-4.486 10-10 10s-10-4.486-10-10 4.486-10 10-10 10 4.486 10 10zm13.849-7.5c-.495-1.57-1.141-3.072-1.92-4.492l16.564-17.233c4.746 6.236 8.017 13.651 9.279 21.725zm-97.206 7.5c0-40.449 32.908-73.357 73.356-73.357 17.009 0 32.671 5.835 45.127 15.586l-6.959 7.24c-10.623-8.044-23.845-12.826-38.167-12.826-34.936 0-63.357 28.422-63.357 63.357 0 34.936 28.421 63.357 63.356 63.357 32.397 0 59.175-24.446 62.898-55.857h10.078c-3.768 36.94-35.059 65.857-72.977 65.857-40.447 0-73.355-32.908-73.355-73.357zm122.527 73.357c17.356-11.674 30.372-29.325 36.045-49.993v3.484c0 6.893 5.607 12.5 12.5 12.5h43.928c2.073 0 4.025-.515 5.748-1.412 3.471 1.229 7.201 1.906 11.088 1.906 18.403 0 33.375-14.971 33.375-33.374 0-7.334-2.384-14.119-6.409-19.633l20.409-21.233c2.871-2.986 2.776-7.734-.21-10.604s-7.734-2.776-10.604.21l-20.936 21.781c-4.665-2.483-9.982-3.895-15.625-3.895-10.137 0-19.213 4.559-25.336 11.718v-34.355l56.361-50.766h58.898l-29.104 30.279c-2.871 2.986-2.776 7.734.21 10.604 2.987 2.871 7.735 2.776 10.604-.21l39.095-40.673h10.163l7.201 20.016c-30.368 13.995-51.501 44.721-51.501 80.293 0 30.527 15.568 57.479 39.175 73.357zm92.274-73.741c2.723-6.745 9.327-11.521 17.035-11.521 10.132 0 18.375 8.243 18.375 18.375 0 10.131-8.243 18.374-18.375 18.374-1.497 0-2.944-.199-4.336-.54v-.792c0-9.93-5.042-18.703-12.699-23.896zm108.627.384c0-29.08 17.008-54.261 41.599-66.12l3.412 9.483c-20.739 10.422-35.011 31.888-35.011 56.637 0 34.936 28.421 63.357 63.356 63.357 27.735 0 52.009-17.777 60.401-44.237 1.252-3.948-.933-8.164-4.881-9.417-3.948-1.252-8.164.933-9.417 4.881-6.407 20.2-24.935 33.772-46.104 33.772-26.664 0-48.356-21.693-48.356-48.357 0-18.252 10.167-34.171 25.132-42.401l8.099 22.513c-5.996 4.571-9.875 11.784-9.875 19.888 0 13.785 11.215 25 25 25s25-11.215 25-25-11.215-25-25-25c-.34 0-.677.012-1.014.026l-8.098-22.51c2.953-.566 5.997-.873 9.112-.873 20.618 0 38.993 13.123 45.723 32.653 1.35 3.916 5.62 5.996 9.534 4.647 3.916-1.35 5.997-5.618 4.647-9.534-8.814-25.58-32.888-42.767-59.905-42.767-4.895 0-9.656.577-14.235 1.632l-3.408-9.474c5.655-1.402 11.561-2.159 17.643-2.159 40.449 0 73.356 32.908 73.356 73.357s-32.908 73.357-73.356 73.357-73.354-32.905-73.354-73.354zm63.356 0c0-5.514 4.486-10 10-10s10 4.486 10 10-4.486 10-10 10-10-4.486-10-10z"/><g><path d="m142.927 147.849h-113.427c-4.142 0-7.5 3.358-7.5 7.5s3.358 7.5 7.5 7.5h113.427c4.142 0 7.5-3.358 7.5-7.5s-3.358-7.5-7.5-7.5z"/><path d="m110.26 188.401h-102.76c-4.142 0-7.5 3.358-7.5 7.5s3.358 7.5 7.5 7.5h102.76c4.142 0 7.5-3.358 7.5-7.5s-3.358-7.5-7.5-7.5z"/><path d="m87.5 228.954h-54c-4.142 0-7.5 3.358-7.5 7.5s3.358 7.5 7.5 7.5h54c4.142 0 7.5-3.358 7.5-7.5s-3.358-7.5-7.5-7.5z"/></g></g></svg>