<svg id="Capa_1" enable-background="new 0 0 512 512" height="512" viewBox="0 0 512 512" width="512" xmlns="http://www.w3.org/2000/svg"><g><g><path d="m383.5 291.996h-10.5v-29h10.5c8.008 0 14.5 6.492 14.5 14.5 0 8.008-6.492 14.5-14.5 14.5z" fill="#fac600"/></g><g><path d="m319.528 120.138-11.241-16.143v-8.079h-56.102v52.934c5.143 2.49 10.914 3.867 17.012 3.867h24.091c8.284 0 15-6.716 15-15v-4.722c0-2.761 2.239-5 5-5h2.138c4.039.001 6.411-4.542 4.102-7.857z" fill="#fed2a4"/><path d="m252.185 95.917h-27.185v17.71c0 7.925 3.696 15.296 9.052 21.455 2.789 1.044 5.407 2.663 7.64 4.897l7.009 7.009c1.162.666 2.326 1.282 3.483 1.841v-52.912z" fill="#883f2e"/><path d="m288.273 242.967h-52.42v37.873h11.795l-11.795 11.794v2.081h-2.081l-20.137 20.136c.347 2.346.364 3.892.364 3.892v35.521l86.361-77.787c4.182-3.474 6.848-8.712 6.848-14.574.001-10.459-8.476-18.936-18.935-18.936z" fill="#ffbd86"/><g><path d="m190.055 266.913 24.718 24.717-3.085 3.086 24.166-.001v-52.715h-20.886z" fill="#81b823"/></g><path d="m88.356 326.29c-44.656 0-80.856 36.202-80.856 80.857 0 44.656 36.2 80.857 80.856 80.857 44.657 0 80.858-36.202 80.858-80.857s-36.2-80.857-80.858-80.857zm0 136.714c-30.799 0-55.856-25.058-55.856-55.857s25.057-55.857 55.856-55.857c30.8 0 55.857 25.057 55.857 55.857s-25.057 55.857-55.857 55.857z" fill="#54469c"/><path d="m54.651 451.652c-13.447-10.209-22.151-26.357-22.151-44.505s8.704-34.296 22.151-44.505c11.497-17.392 29.523-30.09 50.598-34.571-5.45-1.159-11.098-1.781-16.893-1.781-44.656 0-80.856 36.202-80.856 80.857 0 44.656 36.2 80.857 80.856 80.857 5.795 0 11.443-.622 16.893-1.781-21.075-4.48-39.101-17.179-50.598-34.571z" fill="#463b84"/><g><path d="m411.784 326.29c-44.656 0-80.857 36.202-80.857 80.857 0 44.656 36.2 80.857 80.857 80.857 44.656 0 80.856-36.202 80.856-80.857.001-44.655-36.2-80.857-80.856-80.857zm0 136.714c-30.799 0-55.856-25.058-55.856-55.857s25.057-55.857 55.856-55.857 55.856 25.057 55.856 55.857-25.057 55.857-55.856 55.857z" fill="#54469c"/></g><path d="m364.883 437.426c-5.656-8.731-8.956-19.124-8.956-30.279s3.3-21.548 8.956-30.279c10.298-25.457 33.175-44.477 60.937-49.339-4.561-.799-9.246-1.239-14.036-1.239-44.656 0-80.857 36.202-80.857 80.857 0 44.656 36.2 80.857 80.857 80.857 4.79 0 9.475-.44 14.036-1.239-27.762-4.862-50.639-23.882-60.937-49.339z" fill="#463b84"/><path d="m246.836 387.741c-13.297 0-24.245 10.032-25.703 22.939 8.095 3.036 13.868 10.823 13.868 19.978v3.338c0 .838-.229 1.618-.597 2.314 3.69 2.026 7.926 3.18 12.433 3.18 14.29 0 25.875-11.584 25.875-25.874-.001-14.29-11.586-25.875-25.876-25.875z" fill="#62dbfb"/><path d="m246 413.616c0-9.748 5.393-18.233 13.355-22.645-3.71-2.056-7.977-3.23-12.519-3.23-13.297 0-24.245 10.032-25.703 22.939 8.095 3.036 13.868 10.823 13.868 19.978v3.338c0 .838-.229 1.618-.597 2.314 3.69 2.026 7.926 3.18 12.433 3.18 4.542 0 8.809-1.174 12.519-3.23-7.963-4.411-13.356-12.897-13.356-22.644z" fill="#01d0fb"/><path d="m214 409.322v-90.578s-.12-12.281-7.491-20.263l-25.437 25.437v85.386h32.574c.12 0 .235.016.354.018z" fill="#fed2a4"/><path d="m198.072 306.918-17 17v85.386h17z" fill="#ffbd86"/><g><path d="m235 433.996c0 2.75-2.25 5-5 5h-43.928c-2.75 0-5-2.25-5-5v-24.691h32.574c11.793 0 21.354 9.56 21.354 21.354z" fill="#fac600"/></g><path d="m181.072 409.304v24.691c0 2.75 2.25 5 5 5h12v-29.691z" fill="#e8b800"/><path d="m222.155 192.991c-7.412-7.412-7.412-19.429 0-26.841s19.429-7.412 26.841 0l17.128 17.128c1.793-9.599-1.02-19.888-8.446-27.314l-15.985-15.985c-8.386-8.386-22.108-8.386-30.494 0l-74.037 74.036c.034.033.063.068.096.101l52.797 52.796 53.01-53.011z" fill="#fd4755"/><g><path d="m243.365 141.651-1.672-1.672c-8.386-8.386-22.108-8.386-30.494 0l-74.037 74.036v.005l52.894 52.893 16.919-16.919-28.904-28.907c-3.905-3.905-3.905-10.237 0-14.142z" fill="#fb2b3a"/></g><g><g><path d="m214.773 291.63-77.516-77.514c-.033-.033-.062-.068-.097-.102l-22.031 22.032c-8.386 8.386-8.386 22.109 0 30.494l62.367 62.367z" fill="#8bc727"/></g></g><g><path d="m148.356 266.541c-8.386-8.385-8.386-22.108 0-30.494l5.416-5.416-16.514-16.514c-.033-.033-.062-.068-.097-.102l-22.031 22.032c-8.386 8.386-8.386 22.109 0 30.494l62.367 62.367 16.613-16.614z" fill="#81b823"/></g><g><path d="m199 72.409h109.287c0-26.738-21.675-48.413-48.413-48.413h-12.461c-26.738 0-48.413 21.675-48.413 48.413z" fill="#54469c"/></g><g><path d="m208.923 43.055c-6.221 8.144-9.923 18.314-9.923 29.354h52.125c-7.097-16.615-23.216-28.452-42.202-29.354z" fill="#463b84"/></g><g><path d="m199 72.409 26 23.508h83.287v-23.508z" fill="#c2bce0"/></g><g><path d="m199 72.409 26 23.508h34l-26-23.508z" fill="#aca6d6"/></g></g><g><g><path d="m374.627 194.996h-8.53c-5.6 0-10.245 4.052-11.188 9.382h-67.688l3.824 3.824-25.699 25.699h81.257c1.926-6.276 8.12-10.683 15.205-9.79 6.247.788 11.29 5.833 12.077 12.08.318 2.53-.058 4.939-.934 7.091h1.676c6.281 0 11.373-5.092 11.373-11.373v-25.541c0-6.281-5.092-11.372-11.373-11.372z" fill="#fed2a4"/></g><g><path d="m354.91 220.618h-76.28l-13.282 13.282h81.257c1.409-4.592 5.102-8.169 9.763-9.413-.705-1.17-1.211-2.474-1.458-3.869z" fill="#ffbd86"/></g><g><path d="m291.047 208.201-42.051-42.051c-7.412-7.412-19.429-7.412-26.841 0-7.412 7.412-7.412 19.429 0 26.841l42.051 42.051z" fill="#fff"/></g><g><path d="m247.559 192.991c-7.412-7.412-7.412-19.429 0-26.841.231-.231.479-.433.718-.649-7.45-6.734-18.942-6.532-26.123.649-7.412 7.412-7.412 19.429 0 26.841l42.051 42.051 12.702-12.702z" fill="#f2fbff"/></g></g><g><path d="m88.357 424.647c-9.649 0-17.5-7.851-17.5-17.5s7.85-17.5 17.5-17.5 17.5 7.85 17.5 17.5-7.851 17.5-17.5 17.5z" fill="#62dbfb"/></g><g><path d="m87 407.147c0-6.738 3.833-12.588 9.428-15.512-2.418-1.263-5.16-1.988-8.072-1.988-9.649 0-17.5 7.85-17.5 17.5s7.85 17.5 17.5 17.5c2.912 0 5.654-.725 8.072-1.988-5.595-2.923-9.428-8.774-9.428-15.512z" fill="#01d0fb"/></g><g><ellipse cx="411.784" cy="407.147" fill="#62dbfb" rx="17.5" ry="17.5" transform="matrix(.077 -.997 .997 .077 -26.022 786.174)"/></g><g><path d="m411 407.147c0-6.638 3.696-12.412 9.142-15.378-2.484-1.353-5.331-2.122-8.358-2.122-9.665 0-17.5 7.835-17.5 17.5s7.835 17.5 17.5 17.5c3.027 0 5.874-.77 8.358-2.122-5.446-2.966-9.142-8.74-9.142-15.378z" fill="#01d0fb"/></g><g><path d="m373.885 236.191c1.154 9.169-6.558 16.877-15.727 15.72-6.246-.789-11.289-5.835-12.074-12.081-1.153-9.168 6.557-16.875 15.724-15.719 6.247.788 11.291 5.833 12.077 12.08z" fill="#62dbfb"/></g><path d="m504.5 480.504h-43.534c23.607-15.879 39.175-42.83 39.175-73.357 0-48.72-39.637-88.357-88.356-88.357-7.862 0-15.485 1.038-22.746 2.974l-8.011-22.268h2.473c12.131 0 22-9.869 22-22s-9.869-22-22-22h-3v-5.661c7.537-2.476 13-9.57 13-17.925v-25.541c0-10.406-8.466-18.873-18.873-18.873h-8.53c-6.893 0-13.02 3.705-16.313 9.381h-11.785c-4.142 0-7.5 3.358-7.5 7.5s3.358 7.5 7.5 7.5h16.91c3.638 0 6.751-2.611 7.385-6.193.327-1.847 1.926-3.188 3.802-3.188h8.53c2.135 0 3.873 1.737 3.873 3.873v20.64c-3.296-5.561-9.024-9.49-15.752-10.339-6.687-.843-13.237 1.388-17.974 6.124-1.109 1.109-2.075 2.32-2.903 3.606h-58.417l12.896-12.896c.487-.487.895-1.037 1.227-1.627h5.423c4.142 0 7.5-3.358 7.5-7.5s-3.358-7.5-7.5-7.5h-12.671l-16.294-16.294c.076-.979.115-1.965.115-2.957 0-6.157-1.458-12.086-4.195-17.408h23.332c12.407 0 22.5-10.093 22.5-22.5v-2.228c4.528-.129 8.612-2.674 10.718-6.708 2.163-4.142 1.848-9.096-.822-12.93l-9.896-14.21v-29.233c0-30.831-25.083-55.913-55.913-55.913h-12.461c-30.831 0-55.913 25.083-55.913 55.913 0 2.182.938 4.141 2.425 5.511l26.045 23.56c.769.695 1.669 1.21 2.635 1.536v10.611c0 4.378.615 8.613 1.75 12.633-6.731.481-13.326 3.281-18.46 8.416l-74.032 74.031c-.002.002-.003.003-.005.005l-22.031 22.032c-5.472 5.473-8.486 12.771-8.486 20.551s3.014 15.078 8.486 20.55l50.061 50.061-15.96 16.604c-15.191-12.323-34.533-19.719-55.572-19.719-48.719-.001-88.356 39.636-88.356 88.356 0 30.522 15.558 57.478 39.158 73.357h-31.658c-4.142 0-7.5 3.358-7.5 7.5s3.358 7.5 7.5 7.5h497c4.142 0 7.5-3.358 7.5-7.5s-3.358-7.5-7.5-7.5zm-124-210.008h3c3.86 0 7 3.14 7 7s-3.14 7-7 7h-3zm-25.122-37.094c.75-.75 2.283-1.908 4.588-1.908.289 0 .59.018.903.058 2.869.362 5.213 2.707 5.574 5.576.354 2.812-1.009 4.647-1.853 5.491-.845.843-2.686 2.205-5.493 1.851-2.868-.362-5.211-2.707-5.572-5.576-.353-2.813 1.01-4.648 1.853-5.492zm-16.628 7.998c1.47 9.41 8.968 16.752 18.469 17.951.93.117 1.857.175 2.777.175 1.879 0 3.723-.265 5.504-.735v33.046h-70.986l10.764-9.695c5.996-5.042 9.431-12.41 9.431-20.239 0-8.264-3.814-15.652-9.771-20.503zm-50.477 9.067c6.306 0 11.436 5.13 11.436 11.436 0 3.41-1.509 6.619-4.141 8.805-.077.064-.152.129-.227.196l-23.241 20.933h-24.844l5.695-5.694c2.145-2.145 2.787-5.371 1.626-8.173-1.161-2.803-3.896-4.63-6.929-4.63h-4.295v-22.873zm-81.773 68.35v82.987h-17.928v-73.365l16.73-16.73c1.067 3.666 1.188 6.78 1.198 7.108zm-5.838-51.905 17.413-17.413h10.279v37.716h-7.529c-.226-.309-.469-.609-.748-.888zm12.984 149.892c7.639 0 13.854 6.215 13.854 13.854v.838h-38.928v-14.691h25.074zm7.854-98.127c-.001-.148-.009-.516-.037-1.045l10.794-10.794h23.191l-33.948 30.578zm11.574-84.177 9.991-9.991 10.959 10.959h-14.493c-1.087-.614-2.34-.968-3.678-.968zm47.366-26.299-16.235 16.235-36.748-36.749c-2.168-2.168-3.362-5.05-3.362-8.117 0-3.066 1.194-5.949 3.362-8.117s5.051-3.362 8.117-3.362 5.949 1.194 8.117 3.362zm-42.835-94.574v-10.21h7.121v29.217c-.525-.426-1.065-.824-1.612-1.207-3.472-5.072-5.509-11.202-5.509-17.8zm73.205 7.115c-5.709 1.153-10.022 6.209-10.022 12.253v4.722c0 4.136-3.364 7.5-7.5 7.5h-24.091c-3.298 0-6.479-.51-9.47-1.452v-40.349h21.454c-.558 1.049-.877 2.245-.877 3.516v6.974c0 4.142 3.358 7.5 7.5 7.5s7.5-3.358 7.5-7.5v-6.974c0-1.271-.319-2.467-.877-3.516h6.36v.579c0 1.533.47 3.028 1.345 4.286zm-63.397-89.246h12.461c19.999 0 36.692 14.423 40.224 33.413h-44.306c-6.743-12.466-18.027-21.87-31.25-26.397 6.535-4.424 14.404-7.016 22.871-7.016zm-34.808 19.448c9.813 1.469 18.754 6.517 25.128 13.965h-30.544c.937-5.04 2.809-9.753 5.416-13.965zm5.873 28.965h82.309v8.508h-72.899zm-1.977 65.373c5.483-5.482 14.404-5.482 19.888 0l10.2 10.199c-3.412-1.562-7.148-2.39-11.013-2.39-7.073 0-13.722 2.754-18.724 7.756s-7.756 11.651-7.756 18.724 2.754 13.723 7.756 18.724l15.607 15.607-42.403 42.405-42.29-42.289zm-96.068 115.955c-2.639-2.639-4.092-6.17-4.092-9.943s1.453-7.305 4.092-9.944l16.726-16.726 28.612 28.612 18.981 18.981s0 0 .001.001l19.414 19.414-26.67 26.671zm50.064 71.277 3.076 2.775v48.493c-3.591-13.082-10.119-24.96-18.831-34.877zm-26.199 27.256c9.329 10.998 15.493 24.76 17.035 39.877h-10.078c-1.458-12.295-6.436-23.525-13.916-32.637zm-55.941 22.377c-13.785 0-25 11.215-25 25s11.215 25 25 25c11.173 0 20.656-7.368 23.849-17.5h23.924c-3.615 23.115-23.659 40.857-47.773 40.857-26.665 0-48.357-21.692-48.357-48.357 0-26.664 21.692-48.357 48.356-48.357 10.289 0 19.83 3.24 27.678 8.739l-16.564 17.233c-3.35-1.67-7.122-2.615-11.113-2.615zm10 25c0 5.514-4.486 10-10 10s-10-4.486-10-10 4.486-10 10-10 10 4.486 10 10zm13.849-7.5c-.495-1.57-1.141-3.072-1.92-4.492l16.564-17.233c4.746 6.236 8.017 13.651 9.279 21.725zm-97.206 7.5c0-40.449 32.908-73.357 73.356-73.357 17.009 0 32.671 5.835 45.127 15.586l-6.959 7.24c-10.623-8.044-23.845-12.826-38.167-12.826-34.936 0-63.357 28.422-63.357 63.357 0 34.936 28.421 63.357 63.356 63.357 32.397 0 59.175-24.446 62.898-55.857h10.078c-3.768 36.94-35.059 65.857-72.977 65.857-40.447 0-73.355-32.908-73.355-73.357zm122.527 73.357c17.356-11.674 30.372-29.325 36.045-49.993v3.484c0 6.893 5.607 12.5 12.5 12.5h43.928c2.073 0 4.025-.515 5.748-1.412 3.471 1.229 7.201 1.906 11.088 1.906 18.403 0 33.375-14.971 33.375-33.374 0-7.334-2.384-14.119-6.409-19.633l20.409-21.233c2.871-2.986 2.776-7.734-.21-10.604s-7.734-2.776-10.604.21l-20.936 21.781c-4.665-2.483-9.982-3.895-15.625-3.895-10.137 0-19.213 4.559-25.336 11.718v-34.355l56.361-50.766h58.898l-29.104 30.279c-2.871 2.986-2.776 7.734.21 10.604 2.987 2.871 7.735 2.776 10.604-.21l39.095-40.673h10.163l7.201 20.016c-30.368 13.995-51.501 44.721-51.501 80.293 0 30.527 15.568 57.479 39.175 73.357zm92.274-73.741c2.723-6.745 9.327-11.521 17.035-11.521 10.132 0 18.375 8.243 18.375 18.375 0 10.131-8.243 18.374-18.375 18.374-1.497 0-2.944-.199-4.336-.54v-.792c0-9.93-5.042-18.703-12.699-23.896zm108.627.384c0-29.08 17.008-54.261 41.599-66.12l3.412 9.483c-20.739 10.422-35.011 31.888-35.011 56.637 0 34.936 28.421 63.357 63.356 63.357 27.735 0 52.009-17.777 60.401-44.237 1.252-3.948-.933-8.164-4.881-9.417-3.948-1.252-8.164.933-9.417 4.881-6.407 20.2-24.935 33.772-46.104 33.772-26.664 0-48.356-21.693-48.356-48.357 0-18.252 10.167-34.171 25.132-42.401l8.099 22.513c-5.996 4.571-9.875 11.784-9.875 19.888 0 13.785 11.215 25 25 25s25-11.215 25-25-11.215-25-25-25c-.34 0-.677.012-1.014.026l-8.098-22.51c2.953-.566 5.997-.873 9.112-.873 20.618 0 38.993 13.123 45.723 32.653 1.35 3.916 5.62 5.996 9.534 4.647 3.916-1.35 5.997-5.618 4.647-9.534-8.814-25.58-32.888-42.767-59.905-42.767-4.895 0-9.656.577-14.235 1.632l-3.408-9.474c5.655-1.402 11.561-2.159 17.643-2.159 40.449 0 73.356 32.908 73.356 73.357s-32.908 73.357-73.356 73.357-73.354-32.905-73.354-73.354zm63.356 0c0-5.514 4.486-10 10-10s10 4.486 10 10-4.486 10-10 10-10-4.486-10-10z"/><g><path d="m142.927 147.849h-113.427c-4.142 0-7.5 3.358-7.5 7.5s3.358 7.5 7.5 7.5h113.427c4.142 0 7.5-3.358 7.5-7.5s-3.358-7.5-7.5-7.5z"/><path d="m110.26 188.401h-102.76c-4.142 0-7.5 3.358-7.5 7.5s3.358 7.5 7.5 7.5h102.76c4.142 0 7.5-3.358 7.5-7.5s-3.358-7.5-7.5-7.5z"/><path d="m87.5 228.954h-54c-4.142 0-7.5 3.358-7.5 7.5s3.358 7.5 7.5 7.5h54c4.142 0 7.5-3.358 7.5-7.5s-3.358-7.5-7.5-7.5z"/></g></g></svg>