<svg height="512" viewBox="0 0 64 64" width="512" xmlns="http://www.w3.org/2000/svg"><g id="Favorite_Page" data-name="Favorite Page"><rect fill="#d6ecf9" height="50" rx="5" width="60" x="2" y="7"/><path d="m57 7h-50a5 5 0 0 0 -5 5v9h60v-9a5 5 0 0 0 -5-5z" fill="#1a1a1a"/><circle id="Button_3" cx="11" cy="14" fill="#f00" r="2"/><circle id="Button_2" cx="20" cy="14" fill="#ff0" r="2"/><circle id="Button_1" cx="29" cy="14" fill="#0f0" r="2"/><path d="m45.57 35.86a1 1 0 0 0 -.81-.68l-8.2-1.18-3.66-7.44a1 1 0 0 0 -1.79 0l-3.67 7.44-8.2 1.19a1 1 0 0 0 -.55 1.71l5.93 5.78-1.4 8.17a1 1 0 0 0 1.45 1.05l7.33-3.9 7.33 3.85a1 1 0 0 0 1.45-1.05l-1.4-8.17 5.93-5.78a1 1 0 0 0 .26-.99z" fill="#fd441e"/></g></svg>