<svg id="Capa_1" enable-background="new 0 0 512 512" height="512" viewBox="0 0 512 512" width="512" xmlns="http://www.w3.org/2000/svg"><g><path d="m208.555 102.286c-4.022-14.389-13.901-41.652-34.88-62.576l21.186-21.24c25.837 25.769 37.772 58.515 42.587 75.74z" fill="#16a4d4"/><path d="m303.445 102.286-28.893-8.076c4.815-17.226 16.75-49.972 42.587-75.74l21.186 21.24c-20.979 20.923-30.858 48.187-34.88 62.576z" fill="#086acd"/><path d="m372.302 88.388-21.307-21.119c9.382-9.466 20.345-17.45 32.584-23.732l13.7 26.689c-9.421 4.836-17.824 10.946-24.977 18.162z" fill="#ffa000"/><path d="m139.698 88.388c-7.152-7.216-15.556-13.326-24.978-18.162l13.7-26.689c12.239 6.282 23.202 14.267 32.584 23.732z" fill="#ffdf46"/><path d="m71.318 391.666c-7.136-13.125-22.859-37.488-47.987-53.193l15.9-25.439c30.947 19.342 49.899 48.59 58.443 64.303z" fill="#8be464"/><path d="m27.608 292.617c-8.235-5.952-17.524-10.609-27.608-13.843l9.161-28.566c13.099 4.2 25.218 10.288 36.019 18.095z" fill="#ff3d58"/><path d="m440.682 391.666-26.356-14.33c8.543-15.713 27.496-44.961 58.443-64.303l15.9 25.439c-25.128 15.706-40.851 40.069-47.987 53.194z" fill="#00baa0"/><path d="m484.392 292.617-17.572-24.314c10.801-7.807 22.92-13.895 36.019-18.095l9.161 28.566c-10.084 3.234-19.373 7.891-27.608 13.843z" fill="#b30361"/><path d="m162.505 150.182c-3.62-5.398-12.365-17.64-19.551-25.331l21.922-20.48c10.432 11.167 21.336 27.3 22.545 29.103z" fill="#ff3d58"/><path d="m349.495 150.182-24.916-16.709c1.209-1.803 12.113-17.936 22.545-29.103l21.922 20.48c-7.186 7.692-15.931 19.934-19.551 25.332z" fill="#b30361"/><path d="m241 .001h30v30h-30z" fill="#8be464"/><path d="m256 .001h15v30h-15z" fill="#00baa0"/><path d="m318.69 193.311c0 34.62-28.07 62.69-62.69 62.69s-62.69-28.07-62.69-62.69 28.07-62.68 62.69-62.68 62.69 28.06 62.69 62.68z" fill="#ffddcd"/><path d="m318.69 193.311c0 34.62-28.07 62.69-62.69 62.69v-125.37c34.62 0 62.69 28.06 62.69 62.68z" fill="#ffcbbb"/><path d="m412.83 289.371-37.74 57.44c-9.43 14.35-14.46 31.15-14.46 48.33v73.6h-209.26v-73.6c0-17.18-5.03-33.98-14.46-48.33l-37.74-57.44 18.36-33.37 38.97-10.81c22.18 33.27 59.52 53.25 99.5 53.25s77.32-19.98 99.5-53.25l38.97 5.02z" fill="#16a4d4"/><path d="m412.83 289.371-37.74 57.44c-9.43 14.35-14.46 31.15-14.46 48.33v73.6h-104.63v-170.3c39.98 0 77.32-19.98 99.5-53.25l38.97 5.02z" fill="#086acd"/><path d="m156.499 245.189-75.049-112.574c-9.969-14.953-29.512-20.143-45.587-12.106-19.086 9.543-25.563 33.607-13.845 51.441l77.153 117.422z" fill="#ffddcd"/><path d="m476.137 120.509c-16.074-8.037-35.618-2.847-45.587 12.106l-75.049 112.574 57.328 44.183 77.153-117.422c11.718-17.834 5.241-41.898-13.845-51.441z" fill="#ffcbbb"/><g><path d="m512 442.571v64c-85.4 10.24-170.7 3.97-256-2.31-85.3-6.27-170.6-12.55-256-2.31v-63.99c85.4-10.24 170.7-3.97 256 2.3 85.3 6.28 170.6 12.55 256 2.31z" fill="#ff3d58"/></g><path d="m512 442.571v64c-85.4 10.24-170.7 3.97-256-2.31v-64c85.3 6.28 170.6 12.55 256 2.31z" fill="#b30361"/></g></svg>