<svg id="Capa_1" enable-background="new 0 0 512 512" height="512" viewBox="0 0 512 512" width="512" xmlns="http://www.w3.org/2000/svg"><g><path d="m383.563 0h-127.563l-10 91.975 137.563 20z" fill="#f66"/><path d="m128.437 0v111.975l127.563-20v-91.975z" fill="#f96"/><path d="m375.839 107.69c-36.346-20.16-77.786-30.816-119.839-30.816l-10 15 10 15c34.022 0 67.566 7.921 97.563 22.974l-.001 63.795h30l.001-81.667z" fill="#fd3"/><path d="m136.16 107.691-7.724 4.285v81.667h30v-63.795c29.996-15.053 63.54-22.974 97.563-22.974v-30c-42.053 0-83.492 10.656-119.839 30.817z" fill="#fe9"/><path d="m256 136.874-10 180.126 10 195c103.423 0 187.563-84.141 187.563-187.563 0-103.423-84.14-187.563-187.563-187.563z" fill="#fb3"/><path d="m68.437 324.437c0 103.422 84.14 187.563 187.563 187.563v-375.126c-103.423 0-187.563 84.14-187.563 187.563z" fill="#fd3"/><path d="m356.807 223.63c-26.926-26.927-62.727-41.756-100.807-41.756l-10 135.126 10 150c38.08 0 73.881-14.829 100.807-41.756 26.927-26.927 41.756-62.727 41.756-100.807s-14.829-73.881-41.756-100.807z" fill="#fd3"/><path d="m155.193 223.63c-26.927 26.927-41.756 62.727-41.756 100.807s14.829 73.881 41.756 100.807c26.926 26.927 62.727 41.756 100.807 41.756v-285.126c-38.08 0-73.881 14.829-100.807 41.756z" fill="#fe9"/><path d="m368.563 324.437c0-62.167-50.396-112.563-112.563-112.563l-10 105.126 10 120c62.167 0 112.563-50.396 112.563-112.563z" fill="#f96"/><path d="m143.437 324.437c0 62.167 50.396 112.563 112.563 112.563v-225.126c-62.167 0-112.563 50.396-112.563 112.563z" fill="#fb3"/><path d="m301 377v-30h-30v-90h-15l-10 60 10 60z" fill="#fd3"/><path d="m211 287v30c10.92 0 21.17-2.933 30-8.052v38.052h-30v30h45v-120h-15c0 16.542-13.458 30-30 30z" fill="#fe9"/></g></svg>