<?xml version="1.0" encoding="iso-8859-1"?>
<!-- Generator: Adobe Illustrator 19.0.0, SVG Export Plug-In . SVG Version: 6.00 Build 0)  -->
<svg version="1.1" id="Capa_1" xmlns="http://www.w3.org/2000/svg" xmlns:xlink="http://www.w3.org/1999/xlink" x="0px" y="0px"
	 viewBox="0 0 512 512" style="enable-background:new 0 0 512 512;" xml:space="preserve">
<path style="fill:#B32425;" d="M395.039,118.97l33.45-45.4c1.673-2.271,1.926-5.289,0.654-7.806
	c-1.272-2.517-3.853-4.104-6.673-4.104h-73.435c-4.129,0-7.476,3.347-7.476,7.476v46.189h-34.974c-4.129,0-7.476,3.347-7.476,7.476
	v46.005c0,4.129,3.347,7.476,7.476,7.476H422.47c2.82,0,5.401-1.587,6.673-4.104c1.272-2.517,1.019-5.536-0.654-7.807
	L395.039,118.97z"/>
<path style="fill:#8C1E23;" d="M355.884,119.8c-1.191-2.72-3.88-4.477-6.848-4.477h-42.451c-4.129,0-7.476,3.347-7.476,7.476v46.005
	c0,3.078,1.887,5.843,4.755,6.963c0.885,0.346,1.807,0.513,2.72,0.513c2.048,0,4.052-0.842,5.496-2.407l42.451-46.005
	C356.544,125.688,357.075,122.521,355.884,119.8z"/>
<path style="fill:#E93234;" d="M349.036,15.653H213.674c-4.129,0-7.476,3.347-7.476,7.476V122.8c0,4.129,3.347,7.476,7.476,7.476
	h135.362c4.129,0,7.476-3.347,7.476-7.476V23.129C356.512,19,353.165,15.653,349.036,15.653z"/>
<path style="fill:#475D63;" d="M213.674,207.581c-4.129,0-7.476-3.347-7.476-7.476V9.034c0-4.129,3.347-7.476,7.476-7.476
	s7.476,3.347,7.476,7.476v191.072C221.15,204.235,217.803,207.581,213.674,207.581z"/>
<path style="fill:#546F7A;" d="M510.703,498.76L360.255,277.781c-1.393-2.046-3.706-3.269-6.18-3.269
	c-2.474,0-4.788,1.224-6.18,3.269l-42.327,62.169c-1.729,2.539-1.729,5.876,0,8.414l108.122,158.809
	c1.393,2.046,3.706,3.269,6.18,3.269h84.653c2.77,0,5.314-1.532,6.609-3.98C512.428,504.014,512.262,501.049,510.703,498.76z"/>
<path style="fill:#475D63;" d="M483.696,510.443h20.828c2.77,0,5.314-1.532,6.609-3.98c1.295-2.448,1.13-5.414-0.429-7.703
	L360.255,277.781c-1.393-2.046-3.706-3.269-6.18-3.269c-2.474,0-4.788,1.224-6.18,3.269l-11.301,16.598L483.696,510.443z"/>
<path style="fill:#546F7A;" d="M426.051,498.76L219.855,195.898c-1.393-2.046-3.706-3.269-6.18-3.269s-4.788,1.223-6.18,3.269
	L1.296,498.76c-1.559,2.29-1.724,5.254-0.429,7.703c1.296,2.449,3.839,3.98,6.609,3.98h412.394c2.77,0,5.313-1.532,6.609-3.98
	C427.775,504.014,427.61,501.049,426.051,498.76z"/>
<path style="fill:#475D63;" d="M400.039,510.443h19.831c2.77,0,5.313-1.532,6.609-3.98c1.295-2.448,1.13-5.414-0.429-7.703
	L219.855,195.898c-1.393-2.046-3.706-3.269-6.18-3.269s-4.788,1.223-6.18,3.269l-10.803,15.867L400.039,510.443z"/>
<path style="fill:#E0E0E0;" d="M288.389,296.562l-68.534-100.663c-1.393-2.046-3.706-3.269-6.18-3.269s-4.788,1.223-6.18,3.269
	L138.96,296.562c-2.112,3.103-1.597,7.292,1.205,9.789l33.933,30.242c1.417,1.263,3.196,1.895,4.974,1.895
	c1.754,0,3.511-0.615,4.92-1.847l29.682-25.942l29.681,25.942c2.839,2.481,7.08,2.46,9.895-0.048l33.934-30.242
	C289.985,303.853,290.501,299.664,288.389,296.562z"/>
<path style="fill:#C9C9C9;" d="M270.942,320.825l16.242-14.474c2.801-2.497,3.318-6.685,1.206-9.787l-68.535-100.665
	c-1.393-2.046-3.706-3.269-6.18-3.269s-4.788,1.223-6.18,3.269l-10.803,15.867L270.942,320.825z"/>
<g>
</g>
<g>
</g>
<g>
</g>
<g>
</g>
<g>
</g>
<g>
</g>
<g>
</g>
<g>
</g>
<g>
</g>
<g>
</g>
<g>
</g>
<g>
</g>
<g>
</g>
<g>
</g>
<g>
</g>
</svg>
