<svg id="Capa_1" enable-background="new 0 0 497 497" height="512" viewBox="0 0 497 497" width="512" xmlns="http://www.w3.org/2000/svg"><g><path d="m454.693 497h-422.386c-13.807 0-25-11.193-25-25v-398.05c0-13.807 11.193-25 25-25h422.385c13.807 0 25 11.193 25 25v398.05c.001 13.807-11.192 25-24.999 25z" fill="#f2fdff"/><path d="m464.693 48.95h-30c13.807 0 25 11.193 25 25v398.05c0 13.807-11.193 25-25 25h30c13.807 0 25-11.193 25-25v-398.05c0-13.807-11.193-25-25-25z" fill="#d3ecf5"/><path d="m454.693 48.95h-13.853l-23.726 10-23.726-10h-101.162l-23.726 10-23.726-10h-101.162l-23.726 10-23.726-10h-63.853c-13.807 0-25 11.193-25 25v82.802h472.385v-82.802c.001-13.807-11.192-25-24.999-25z" fill="#ed6479"/><path d="m464.693 48.95h-30c13.807 0 25 11.193 25 25v82.802h30v-82.802c0-13.807-11.193-25-25-25z" fill="#d65461"/><path d="m417.114 97.9c13.104 0 23.726-10.622 23.726-23.726v-25.224h-47.452v25.224c0 13.104 10.622 23.726 23.726 23.726z" fill="#d65461"/><path d="m268.5 97.9c13.104 0 23.726-10.622 23.726-23.726v-25.224h-47.452v25.224c0 13.104 10.622 23.726 23.726 23.726z" fill="#d65461"/><path d="m119.886 97.9c13.104 0 23.726-10.622 23.726-23.726v-25.224h-47.452v25.224c0 13.104 10.623 23.726 23.726 23.726z" fill="#d65461"/><path d="m248.5 97.9c-13.104 0-23.726-10.622-23.726-23.726v-50.448c0-13.103 10.622-23.726 23.726-23.726 13.104 0 22.726 10.623 22.726 23.726v50.449c0 13.103-9.622 23.725-22.726 23.725z" fill="#9dc6fb"/><path d="m99.886 97.9c-13.104 0-23.726-10.622-23.726-23.726v-50.448c0-13.103 10.623-23.726 23.726-23.726 13.104 0 22.726 10.623 22.726 23.726v50.449c0 13.103-9.622 23.725-22.726 23.725z" fill="#9dc6fb"/><path d="m397.114 97.9c-13.104 0-23.726-10.622-23.726-23.726v-50.448c0-13.103 10.622-23.726 23.726-23.726 13.103 0 22.726 10.623 22.726 23.726v50.449c0 13.103-9.623 23.725-22.726 23.725z" fill="#9dc6fb"/><path d="m397.114 0c-2.996 0-5.861.561-8.5 1.575 8.903 3.419 15.226 12.044 15.226 22.151v50.449c0 10.107-6.322 18.732-15.226 22.151 2.639 1.014 5.504 1.575 8.5 1.575 13.103 0 23.726-10.622 23.726-23.726v-50.449c0-13.104-10.623-23.726-23.726-23.726z" fill="#80b4fb"/><path d="m248.5 0c-2.997 0-5.861.561-8.5 1.575 8.903 3.419 15.226 12.044 15.226 22.151v50.449c0 10.107-6.323 18.732-15.226 22.151 2.639 1.014 5.503 1.575 8.5 1.575 13.103 0 23.726-10.622 23.726-23.726v-50.449c0-13.104-10.623-23.726-23.726-23.726z" fill="#80b4fb"/><path d="m99.887 0c-2.997 0-5.861.561-8.5 1.575 8.903 3.419 15.226 12.044 15.226 22.151v50.449c0 10.107-6.323 18.732-15.226 22.151 2.639 1.014 5.503 1.575 8.5 1.575 13.103 0 23.726-10.622 23.726-23.726v-50.449c-.001-13.104-10.623-23.726-23.726-23.726z" fill="#80b4fb"/><g fill="#ed6479"><path d="m435.981 304.624h-81.099c-2.91 0-5.268-2.359-5.268-5.268v-81.099c0-2.91 2.359-5.268 5.268-5.268h81.099c2.91 0 5.268 2.359 5.268 5.268v81.099c0 2.909-2.358 5.268-5.268 5.268z"/><path d="m289.049 442.071h-81.099c-2.91 0-5.268-2.359-5.268-5.268v-81.099c0-2.91 2.359-5.268 5.268-5.268h81.099c2.91 0 5.268 2.359 5.268 5.268v81.099c.001 2.91-2.358 5.268-5.268 5.268z"/><path d="m142.118 442.071h-81.099c-2.91 0-5.268-2.359-5.268-5.268v-81.099c0-2.91 2.359-5.268 5.268-5.268h81.099c2.91 0 5.268 2.359 5.268 5.268v81.099c0 2.91-2.358 5.268-5.268 5.268z"/><path d="m435.981 442.071h-81.099c-2.91 0-5.268-2.359-5.268-5.268v-81.099c0-2.91 2.359-5.268 5.268-5.268h81.099c2.91 0 5.268 2.359 5.268 5.268v81.099c0 2.91-2.358 5.268-5.268 5.268z"/></g><path d="m289.049 304.624h-81.099c-2.91 0-5.268-2.359-5.268-5.268v-81.099c0-2.91 2.359-5.268 5.268-5.268h81.099c2.91 0 5.268 2.359 5.268 5.268v81.099c.001 2.909-2.358 5.268-5.268 5.268z" fill="#f9d065"/><path d="m142.118 304.624h-81.099c-2.91 0-5.268-2.359-5.268-5.268v-81.099c0-2.91 2.359-5.268 5.268-5.268h81.099c2.91 0 5.268 2.359 5.268 5.268v81.099c0 2.909-2.358 5.268-5.268 5.268z" fill="#f9d065"/><path d="m156.895 223.894-45.391 45.701-16.428-16.139c-2.953-2.902-7.703-2.861-10.605.094-2.903 2.954-2.861 7.703.094 10.605l21.748 21.366c1.46 1.435 3.358 2.15 5.256 2.15 1.928 0 3.855-.739 5.321-2.215l50.647-50.993c2.919-2.938 2.902-7.688-.036-10.606-2.94-2.918-7.688-2.902-10.606.037z" fill="#9dc6fb"/><path d="m321.181 223.857c-2.939-2.919-7.688-2.902-10.607.036l-45.391 45.701-16.428-16.14c-2.953-2.902-7.701-2.86-10.607.095-2.902 2.955-2.86 7.703.095 10.607l21.749 21.366c1.46 1.434 3.358 2.149 5.256 2.149 1.928 0 3.855-.739 5.321-2.215l50.646-50.993c2.921-2.938 2.904-7.687-.034-10.606z" fill="#9dc6fb"/></g></svg>