<svg id="Capa_1" enable-background="new 0 0 512 512" height="512" viewBox="0 0 512 512" width="512" xmlns="http://www.w3.org/2000/svg"><g><path d="m41.158 0h115.79l17.17 19.083 23.987-19.083h115.79l23.987 19.083 17.17-19.083h115.79l20.579 160.278v351.722h-470.842v-358.703z" fill="#fe646f"/><path d="m41.158 0v283.502h115.79v-283.502h41.158v283.502h115.789v-283.502h41.158v283.502h115.79v-283.502h41.157v491.421c0 11.366-9.213 20.579-20.579 20.579s-20.579-9.213-20.579-20.579v-166.761h-115.79v166.761c0 11.366-9.213 20.579-20.579 20.579s-20.579-9.213-20.579-20.579v-166.761h-115.789v166.761c0 11.366-9.213 20.579-20.579 20.579s-20.579-9.213-20.579-20.579v-166.761h-115.789v166.761c0 11.366-9.213 20.579-20.579 20.579s-20.579-9.213-20.579-20.579v-491.421" fill="#deecf1"/><g><path d="m99.963 465.823c-4.267 0-7.726-3.459-7.726-7.726v-75.377h-10.037c-4.267 0-7.726-3.459-7.726-7.726s3.459-7.726 7.726-7.726h17.763c4.267 0 7.726 3.459 7.726 7.726v83.104c0 4.266-3.459 7.725-7.726 7.725z" fill="#ffe177"/></g><g><path d="m254.281 466.253c-15.804 0-16.958-.385-18.014-.737-2.582-.861-4.51-2.809-5.291-5.348-1.35-4.389.57-6.903 5.703-13.623 4.228-5.536 12.097-15.839 25.281-34.677 3.94-5.63 6.48-10.676 7.554-15.005l.289-2.259c-.231-7.264-6.213-13.101-13.532-13.101-6.456 0-12.043 4.587-13.284 10.906-.822 4.187-4.882 6.915-9.07 6.093-4.187-.822-6.915-4.883-6.093-9.07 2.66-13.548 14.624-23.381 28.447-23.381 15.986 0 28.991 13.006 28.991 28.991-.04 1.179-.401 3.794-.611 4.959-1.47 6.343-4.845 13.317-10.032 20.727-10.049 14.359-17.063 23.84-21.751 30.052 7.91.013 18.336-.068 28.092-.19.033-.001.066-.001.099-.001 4.222 0 7.671 3.395 7.724 7.629.053 4.267-3.362 7.769-7.629 7.823-11.91.15-20.561.212-26.873.212z" fill="#ffe177"/></g><g><path d="m409.931 467.608c-14.383 0-26.726-10.729-28.712-24.957-.185-1.328-.279-2.685-.279-4.034 0-4.267 3.459-7.726 7.726-7.726s7.726 3.459 7.726 7.726c0 .637.044 1.275.131 1.898.927 6.636 6.691 11.641 13.408 11.641 7.465 0 13.538-6.073 13.538-13.539 0-7.465-6.073-13.538-13.538-13.538-4.267 0-7.726-3.459-7.726-7.726s3.459-7.726 7.726-7.726c7.465 0 13.538-6.073 13.538-13.539 0-7.465-6.073-13.538-13.538-13.538-6.456 0-12.043 4.587-13.284 10.905-.822 4.187-4.885 6.912-9.07 6.093-4.187-.822-6.915-4.883-6.093-9.07 2.66-13.547 14.624-23.38 28.447-23.38 15.986 0 28.991 13.006 28.991 28.991 0 8.394-3.586 15.966-9.305 21.265 5.72 5.299 9.305 12.871 9.305 21.265 0 15.984-13.005 28.989-28.991 28.989z" fill="#ffe177"/></g><g fill="#fd4755"><g><path d="m432.485 49.328c-4.267 0-7.726-3.459-7.726-7.726v-.515c0-4.267 3.459-7.726 7.726-7.726s7.726 3.459 7.726 7.726v.515c0 4.267-3.459 7.726-7.726 7.726z"/><path d="m412.947 62.708c-4.267 0-7.726-3.459-7.726-7.726v-.515c0-4.267 3.459-7.726 7.726-7.726s7.726 3.459 7.726 7.726v.515c.001 4.267-3.459 7.726-7.726 7.726z"/><path d="m432.485 73.18c-4.267 0-7.726-3.459-7.726-7.726v-.515c0-4.267 3.459-7.726 7.726-7.726s7.726 3.459 7.726 7.726v.515c0 4.266-3.459 7.726-7.726 7.726z"/></g><g><path d="m119.501 233.676c-4.267 0-7.726-3.459-7.726-7.726v-.515c0-4.267 3.459-7.726 7.726-7.726s7.726 3.459 7.726 7.726v.515c0 4.266-3.459 7.726-7.726 7.726z"/><path d="m99.963 247.056c-4.267 0-7.726-3.459-7.726-7.726v-.515c0-4.267 3.459-7.726 7.726-7.726s7.726 3.459 7.726 7.726v.515c0 4.267-3.459 7.726-7.726 7.726z"/><path d="m119.501 257.527c-4.267 0-7.726-3.459-7.726-7.726v-.515c0-4.267 3.459-7.726 7.726-7.726s7.726 3.459 7.726 7.726v.515c0 4.267-3.459 7.726-7.726 7.726z"/></g><g><path d="m241.818 358.753c-2.302 0-4.579-1.024-6.102-2.981-2.621-3.367-2.017-8.221 1.351-10.843l.406-.316c3.366-2.623 8.222-2.017 10.843 1.351 2.621 3.367 2.017 8.221-1.351 10.843l-.406.316c-1.41 1.098-3.082 1.63-4.741 1.63z"/><path d="m219.263 351.542c-2.304 0-4.583-1.026-6.106-2.985-2.618-3.369-2.01-8.223 1.359-10.842l.406-.316c3.371-2.618 8.224-2.01 10.842 1.359s2.01 8.223-1.359 10.842l-.406.316c-1.409 1.095-3.079 1.626-4.736 1.626z"/><path d="m222.988 373.393c-2.303 0-4.582-1.025-6.105-2.984-2.619-3.369-2.012-8.223 1.357-10.842l.407-.316c3.368-2.62 8.223-2.012 10.842 1.357s2.012 8.223-1.357 10.842l-.407.316c-1.409 1.096-3.08 1.627-4.737 1.627z"/></g></g></g></svg>