<svg id="Capa_1" enable-background="new 0 0 511.997 511.997" height="512" viewBox="0 0 511.997 511.997" width="512" xmlns="http://www.w3.org/2000/svg"><g><path d="m255.999 504.497c-114.934 0-208.106-93.172-208.106-208.105v-80.786c0-114.934 93.172-208.106 208.105-208.106 114.933 0 208.105 93.172 208.105 208.105v80.786c.001 114.934-93.171 208.106-208.104 208.106z" fill="#fe646f"/><path d="m265.221 504.3c-3.06.13-6.14.2-9.23.2-114.929 0-208.098-93.169-208.098-208.109v-80.779c0-114.939 93.169-208.109 208.098-208.109 3.09 0 6.17.07 9.23.2-110.649 4.83-198.889 96.059-198.889 207.909v80.779c.001 111.85 88.24 203.079 198.889 207.909z" fill="#fd4755"/><path d="m414.104 303.892h-50c-4.142 0-7.5-3.358-7.5-7.5s3.358-7.5 7.5-7.5h50c4.142 0 7.5 3.358 7.5 7.5s-3.357 7.5-7.5 7.5z" fill="#ffe177"/><path d="m464.104 263.499h-50c-4.142 0-7.5-3.358-7.5-7.5s3.358-7.5 7.5-7.5h50c4.142 0 7.5 3.358 7.5 7.5s-3.358 7.5-7.5 7.5z" fill="#ffe177"/><path d="m255.999 461.997c-91.316 0-165.606-74.291-165.606-165.605v-80.786c0-91.316 74.29-165.606 165.605-165.606 91.316 0 165.606 74.291 165.606 165.606v80.786c0 91.315-74.29 165.605-165.605 165.605zm-.001-396.997c-83.044 0-150.605 67.562-150.605 150.606v80.786c0 83.044 67.562 150.605 150.606 150.605s150.605-67.562 150.605-150.605v-80.786c0-83.045-67.561-150.606-150.606-150.606z" fill="#deecf1"/><path d="m255.999 404.498c-59.61 0-108.107-48.496-108.107-108.106v-80.786c0-59.61 48.496-108.106 108.106-108.106s108.107 48.496 108.107 108.106v80.786c0 59.609-48.496 108.106-108.106 108.106z" fill="#5de1c4"/><path d="m266.511 403.984c-3.46.34-6.96.51-10.51.51-59.61 0-108.109-48.5-108.109-108.109v-80.779c0-59.61 48.5-108.109 108.109-108.109 3.55 0 7.05.17 10.51.51-54.7 5.3-97.599 51.53-97.599 107.599v80.779c0 56.069 42.9 102.299 97.599 107.599z" fill="#0ed2b3"/><g fill="#0ed2b3"><g><path d="m216.611 349.3c-4.142 0-7.5-3.358-7.5-7.5 0-9.876-8.035-17.912-17.912-17.912-4.142 0-7.5-3.358-7.5-7.5s3.358-7.5 7.5-7.5c10.222 0 19.371 4.684 25.412 12.019 6.041-7.335 15.189-12.019 25.411-12.019 4.142 0 7.5 3.358 7.5 7.5s-3.358 7.5-7.5 7.5c-9.876 0-17.911 8.035-17.911 17.912 0 4.142-3.358 7.5-7.5 7.5z"/><path d="m216.611 276.204c-4.142 0-7.5-3.358-7.5-7.5 0-9.876-8.035-17.912-17.912-17.912-4.142 0-7.5-3.358-7.5-7.5s3.358-7.5 7.5-7.5c10.222 0 19.371 4.684 25.412 12.019 6.041-7.335 15.189-12.019 25.411-12.019 4.142 0 7.5 3.358 7.5 7.5s-3.358 7.5-7.5 7.5c-9.876 0-17.911 8.035-17.911 17.912 0 4.142-3.358 7.5-7.5 7.5z"/><path d="m216.611 203.108c-4.142 0-7.5-3.358-7.5-7.5 0-9.876-8.035-17.912-17.912-17.912-4.142 0-7.5-3.358-7.5-7.5s3.358-7.5 7.5-7.5c10.222 0 19.371 4.684 25.412 12.019 6.041-7.335 15.189-12.019 25.411-12.019 4.142 0 7.5 3.358 7.5 7.5s-3.358 7.5-7.5 7.5c-9.876 0-17.911 8.035-17.911 17.912 0 4.142-3.358 7.5-7.5 7.5z"/></g><g><path d="m295.386 313.397c-4.142 0-7.5-3.358-7.5-7.5 0-9.876-8.035-17.912-17.912-17.912-4.142 0-7.5-3.358-7.5-7.5s3.358-7.5 7.5-7.5c10.222 0 19.371 4.684 25.412 12.019 6.041-7.335 15.189-12.019 25.412-12.019 4.142 0 7.5 3.358 7.5 7.5s-3.358 7.5-7.5 7.5c-9.876 0-17.912 8.035-17.912 17.912 0 4.143-3.358 7.5-7.5 7.5z"/><path d="m295.386 240.302c-4.142 0-7.5-3.358-7.5-7.5 0-9.876-8.035-17.912-17.912-17.912-4.142 0-7.5-3.358-7.5-7.5s3.358-7.5 7.5-7.5c10.222 0 19.371 4.684 25.412 12.019 6.041-7.335 15.189-12.019 25.412-12.019 4.142 0 7.5 3.358 7.5 7.5s-3.358 7.5-7.5 7.5c-9.876 0-17.912 8.035-17.912 17.912 0 4.142-3.358 7.5-7.5 7.5z"/></g></g><g fill="#deecf1"><path d="m255.999 411.998c-63.746 0-115.607-51.861-115.607-115.606v-80.786c0-63.746 51.861-115.606 115.606-115.606 63.746 0 115.606 51.861 115.606 115.606v80.786c0 63.745-51.86 115.606-115.605 115.606zm-.001-296.999c-55.474 0-100.606 45.132-100.606 100.606v80.786c0 55.474 45.132 100.606 100.607 100.606 55.474 0 100.605-45.132 100.605-100.606v-80.786c0-55.474-45.131-100.606-100.606-100.606z"/><path d="m255.999 511.997c-57.59 0-111.733-22.427-152.456-63.149s-63.149-94.866-63.149-152.456v-80.786c0-57.59 22.427-111.734 63.149-152.456 40.722-40.723 94.865-63.15 152.456-63.15s111.734 22.427 152.456 63.149c40.723 40.722 63.149 94.866 63.149 152.456v80.786c0 57.59-22.427 111.733-63.149 152.456s-94.866 63.15-152.456 63.15zm0-496.997c-110.615 0-200.606 89.991-200.606 200.605v80.786c0 110.614 89.991 200.605 200.605 200.605s200.605-89.991 200.605-200.605v-80.786c.001-110.614-89.99-200.605-200.604-200.605z"/></g></g></svg>