<svg id="Layer_1" enable-background="new 0 0 512 512" height="512" viewBox="0 0 512 512" width="512" xmlns="http://www.w3.org/2000/svg"><path d="m40.03 281.772c9.828-.789 18.899 2.409 25.78 8.147 4.28 3.569 10.461 3.585 14.738.014 6.189-5.168 14.155-8.28 22.849-8.28 8.695 0 16.66 3.111 22.849 8.28 4.271 3.567 10.45 3.567 14.721 0 6.189-5.168 14.155-8.28 22.849-8.28 8.695 0 16.66 3.111 22.85 8.28 4.271 3.567 10.45 3.567 14.721 0 6.189-5.168 14.154-8.28 22.85-8.28 8.695 0 16.66 3.111 22.849 8.28 4.271 3.567 10.45 3.567 14.72 0 6.189-5.168 14.155-8.28 22.85-8.28s16.66 3.111 22.849 8.28c4.271 3.567 10.45 3.567 14.721 0 6.189-5.168 14.155-8.28 22.849-8.28 8.695 0 16.66 3.111 22.85 8.28 4.271 3.567 10.449 3.567 14.72 0 6.19-5.168 14.155-8.28 22.849-8.28 8.695 0 16.66 3.111 22.849 8.279 4.277 3.572 10.458 3.555 14.738-.014 6.881-5.738 15.952-8.936 25.779-8.147 13.172 1.057 24.315 9.425 29.546 20.909 1.7-11.65 2.595-23.561 2.595-35.683 0-135.311-109.691-245.002-245.002-245.002s-245.002 109.691-245.002 245.002c0 10.55.668 20.944 1.961 31.143 5.855-9.099 15.708-15.455 27.072-16.368z" fill="#61ccf8"/><path d="m462.927 398.19c18.313-28.824 30.772-61.733 35.697-97.057-5.141-11.719-16.416-20.289-29.763-21.361-9.828-.789-18.899 2.409-25.779 8.147-4.28 3.569-10.461 3.586-14.738.014-6.189-5.168-14.155-8.279-22.849-8.279-8.695 0-16.66 3.111-22.849 8.28-4.271 3.567-10.449 3.567-14.72 0-6.189-5.168-14.155-8.28-22.85-8.28s-16.66 3.111-22.849 8.28c-4.271 3.567-10.45 3.567-14.721 0-6.189-5.168-14.155-8.28-22.849-8.28-8.695 0-16.66 3.111-22.85 8.28-4.271 3.567-10.449 3.567-14.72 0-6.19-5.168-14.155-8.28-22.849-8.28-8.695 0-16.66 3.111-22.85 8.28-4.271 3.567-10.449 3.567-14.721 0-6.189-5.168-14.154-8.28-22.85-8.28-8.695 0-16.66 3.111-22.849 8.28-4.271 3.567-10.45 3.567-14.721 0-6.189-5.168-14.155-8.28-22.849-8.28-8.695 0-16.66 3.111-22.849 8.28-4.278 3.571-10.458 3.555-14.738-.014-6.881-5.738-15.952-8.936-25.78-8.147-11.487.922-21.437 7.402-27.266 16.66 4.444 37.109 17.2 71.655 36.325 101.757z" fill="#add841"/><path d="m332.798 394.637c3.19-8.089 9.007-14.357 16.086-18.218 4.885-2.665 7.152-8.412 5.401-13.694-2.537-7.654-2.509-16.205.681-24.294 3.19-8.088 9.007-14.357 16.086-18.218 4.885-2.665 7.152-8.412 5.401-13.694-1.673-5.048-2.222-10.486-1.493-15.924-2.503-.071-4.988-.952-7.035-2.661-6.189-5.168-14.155-8.28-22.85-8.28s-16.66 3.111-22.849 8.28c-4.271 3.567-10.45 3.567-14.721 0-6.189-5.168-14.155-8.28-22.849-8.28-8.695 0-16.66 3.111-22.85 8.28-4.271 3.567-10.449 3.567-14.72 0-6.19-5.168-14.155-8.28-22.849-8.28-8.695 0-16.66 3.111-22.85 8.28-4.271 3.567-10.449 3.567-14.721 0-6.189-5.168-14.154-8.28-22.85-8.28-8.695 0-16.66 3.111-22.849 8.28-4.271 3.567-10.45 3.567-14.721 0-6.189-5.168-14.155-8.28-22.849-8.28-8.695 0-16.66 3.111-22.849 8.28-4.278 3.571-10.458 3.555-14.738-.014-6.881-5.738-15.952-8.936-25.78-8.147-11.487.922-21.437 7.402-27.266 16.66 4.444 37.109 17.2 71.655 36.325 101.757h282.524c.332-1.192.722-2.378 1.185-3.553z" fill="#8ecb51"/><path d="m48.451 397.19c18.235 29.01 42.371 53.937 70.741 73.072l87.515 36.762c15.924 3.253 32.406 4.976 49.293 4.976 7.896 0 15.703-.378 23.408-1.109l.012-.011 86.638-24.952c40.03-20.166 73.767-50.989 97.496-88.739h-415.103z" fill="#384051"/><path d="m382.298 433.274c-59.5 0-50.685-35.085-50.685-35.085l-.38-1h-282.782c18.235 29.01 42.371 53.937 70.741 73.072l87.515 36.762c15.924 3.254 32.406 4.977 49.293 4.977 7.896 0 15.703-.378 23.408-1.109l.012-.011 86.638-24.952c23.631-11.905 45.066-27.525 63.547-46.09-10.289-3.662-25.359-6.564-47.307-6.564z" fill="#212335"/><path d="m279.42 510.88c30.922-2.933 60.166-11.61 86.658-24.958-17.388-23.817-48.721-51.522-64.09-64.521.596 1.003.841 2.178.668 3.378-.24 1.668-1.236 3.066-2.731 3.835-27.371 14.086-43.956 44.478-49.817 56.891-.301.638-.725 1.178-1.22 1.628 12.311 6.867 27.978 12.938 35.029 15.539 1.649.609 2.024 2.772.674 3.898z" fill="#f9cfa9"/><path d="m279.42 510.88c14.983-1.421 29.568-4.203 43.642-8.199-3.899-23.579-49.077-50.988-49.077-50.988l-1.851-.399c-11.182 12.946-18.522 26.791-22.025 34.212-.301.638-.725 1.178-1.22 1.628 12.311 6.867 27.978 12.938 35.029 15.539 1.649.609 2.024 2.772.674 3.898z" fill="#fbbc8d"/><path d="m372.157 28.122c-5.526-2.556-13.468-6.94-19.796-13.269-17.452-17.452-59.684-24.036-78.799 5.653-1.226 1.904-2.977 3.406-5.003 4.416-9.818 4.895-33.57 22.333-8.295 63.692 6.029 9.866 9.99 18.164 12.476 25.137 4.335-5.204 8.204-11.351 8.204-16.727 0-5.549-1.682-9.779-3.034-13.177-1.545-3.882-2.566-6.447-.745-9.083 2.556-3.703 7.03-2.997 10.369-1.1 1.888 1.073 3.061 3.176 3.061 5.489v3.91c0 2.833 2.305 5.138 5.138 5.138 2.739 0 4.992-2.14 5.131-4.872.944-18.655 3.375-31.661 6.504-34.79 2.474-2.474 8.415-1.894 15.934-1.161 8.763.855 19.561 1.91 31.148-.935-.06.283-.126.607-.191.947l1.687-2.48s8.992-3.563 16.862-9.092c2.814-1.979 2.471-6.252-.651-7.696z" fill="#4e5d6d"/><path d="m277.909 83.847c-1.544-3.882-2.566-6.447-.745-9.083 2.556-3.703 7.03-2.997 10.369-1.1 1.888 1.073 3.061 3.176 3.061 5.489v3.91c0 2.833 2.305 5.138 5.138 5.138 2.739 0 4.992-2.14 5.131-4.872.444-8.781 1.218-16.309 2.239-22.146-1.902-7.902 3.37-18.957-9.471-26.951-12.838-7.992-7.827-21.409-3.579-28.85-6.342 3.3-12.046 8.221-16.491 15.124-1.226 1.904-2.977 3.406-5.003 4.416-9.818 4.895-33.57 22.333-8.295 63.692 6.029 9.866 9.99 18.164 12.476 25.137 4.335-5.204 8.204-11.351 8.204-16.727 0-5.549-1.682-9.779-3.034-13.177z" fill="#384051"/><path d="m358.978 76.987c-8.272-12.96-3.033-32.078-3.033-32.078-22.703 6.342-43.291-3.217-49.358 2.849-4.795 4.796-6.374 26.592-6.826 35.514-.108 2.145-1.882 3.825-4.03 3.825-2.229 0-4.035-1.807-4.035-4.035v-3.91c0-2.633-1.33-5.147-3.619-6.448-4.046-2.299-9.024-2.621-11.823 1.433-3.998 5.791 3.585 11.305 3.585 22.886s-19.578 27.579-19.578 27.579l.362.459c1.049.242 2.049.726 2.903 1.464 5.432 4.69 15.249 14.645 19.897 28.589 5.699 17.096 8.067 21.352 22.818 29.175 2.086 1.106 3.896 2.59 5.384 4.341-.65-5.114-1.616-9.869-2.489-13.556-1.84-7.776-.671-16.057 3.681-22.759 11.164-17.196 29.019-8.488 36.336-13.93 11.122-8.272 1.563-34.255 7.489-35.846 12.101-3.249 10.608-12.593 2.336-25.552z" fill="#f9cfa9"/><path d="m306.243 184.289c2.086 1.106 3.897 2.59 5.384 4.341-.65-5.114-1.616-9.869-2.489-13.556-1.839-7.776-.67-16.057 3.681-22.759-34.81-7.381-34.138-42.954-33.267-52.774-2.39 11.248-19.288 25.062-19.288 25.062l.362.459c1.049.242 2.049.726 2.903 1.464 5.432 4.69 15.249 14.645 19.897 28.589 5.697 17.094 8.065 21.351 22.817 29.174z" fill="#fbbc8d"/><path d="m455.53 213.199c-2.698-6.276-4.188-17.702-10.192-19.965-4.664-1.759-10.31 2.199-13.363 4.825-.957.822-2.423.55-3.016-.563-1.138-2.138-4.447-4.697-10.605-2.859-9.494 2.834-11.45 20.557-11.796 25.067-.056.731-.201 1.452-.465 2.136-10.328 26.719-57.357 36.876-68.473 41.127-1.969.753-4.101-.631-4.202-2.737-.954-19.822-11.577-36.27-17.307-43.779.133 17.24-2.269 39.471-13.384 54.291-4.733 6.31-9.88 14.78-15.076 24.257 16.102 17.82 35.512 29.896 53.562 22.079 37.846-16.389 67.75-53.372 82.398-67.323 12.839-12.229 31.303-6.458 33.746-23.368.645-4.47-.044-9.039-1.827-13.188z" fill="#f9cfa9"/><path d="m307.179 263.52c-1.306 2.543-2.768 4.975-4.452 7.22-4.733 6.31-9.88 14.78-15.076 24.257 16.102 17.82 35.513 29.896 53.563 22.079-26.572-5.687-32.736-35.84-34.035-53.556z" fill="#fbbc8d"/><path d="m317.249 198.129c-.689-6.297-4.307-11.975-9.903-14.943-14.752-7.823-17.12-12.08-22.818-29.176-4.648-13.944-14.465-23.898-19.897-28.588-2.181-1.883-5.307-2.176-7.807-.743l-8.163 4.678-.934 1.472c5.479 1.406 10.905 4.314 15.959 9.355 9.345 9.319 6.55 23.474 3.845 37.164l-.232 1.176c-2.053 10.433-7.016 18.542-14.353 23.45-8.546 5.72-19.983 7.2-33.997 4.401-3.183-.637-6.472-.027-9.273 1.715-2.249 1.399-5.721 3.391-10.081 5.393 1.947 10.105 5.238 33.664-1.099 54.869-2.615 8.751-5.375 19.532-7.931 30.21 3.046 2.026 6.396 3.577 10.111 4.486 1.636.4 3.24.833 4.768 1.287 14.9 4.425 18.502 17.87 15.544 28.489-2.244 8.055-7.117 12.86-12.757 15.139 14.24 7.771 29.267 18.329 43.275 29.255 8.504-20.514 34.34-81.028 53.426-106.476 15.838-21.117 13.995-57.292 12.317-72.613z" fill="#f7f3f1"/><path d="m218.95 206.374c-3.183-.637-6.472-.027-9.273 1.715-2.249 1.399-5.721 3.391-10.081 5.393 1.947 10.105 5.238 33.664-1.099 54.869-2.615 8.751-5.375 19.532-7.931 30.21 3.046 2.026 6.396 3.577 10.111 4.486 1.636.4 3.24.833 4.769 1.287 6.227 1.849 10.474 5.277 13.1 9.412 2.24-5.49 4.862-11.074 7.753-16.681 16.5-32 26.649-95.091 26.649-95.091-8.547 5.72-19.984 7.2-33.998 4.4z" fill="#cde2ff"/><path d="m147.209 425.707c-7.14-12.495-8.432-25.264-6.519-37.253-15.859 28.188-20.301 64.049-21.543 81.788 26.077 17.594 55.723 30.301 87.625 36.808 4.413-7.523 9.691-16.816 15.152-27.104-24.922-9.413-58.94-26.632-74.715-54.239z" fill="#e7387f"/><path d="m177.869 457.433c-12.303-8.55-23.409-19.038-30.66-31.726-7.14-12.495-8.432-25.264-6.519-37.253-15.859 28.188-20.301 64.049-21.543 81.788 14.919 10.065 31.01 18.523 48.019 25.143-11.061-21.353 2.246-33.036 10.703-37.952z" fill="#c6237c"/><path d="m302.245 419.083c-14.228-13.588-46.884-43.549-78.794-64.211-.009-.002-10.836-2.28-14.348-7.29-4.939 2.261-10.557 2.5-15.555 1.198h.001c-.5-.13-1.004-.272-1.512-.426-13.367-4.041-15.957-9.259-17.798-16.243l-1.873-.644s-53.833 50.121-27.362 96.446c22.143 38.75 80.244 57.048 98.653 61.996 3.197.859 6.535-.704 7.948-3.698 5.691-12.053 22.084-42.234 49.078-56.126 4.165-2.144 4.951-7.766 1.562-11.002z" fill="#e5646e"/><path d="m223.451 354.872c-4.384-2.839-8.755-5.506-13.062-7.927-2.83 1.543-5.936 2.346-9.052 2.554l-7.538 14.251c-12.673 23.955-5.588 53.883 16.479 69.614l50.568 36.052c3.557-5.641 7.937-11.79 13.138-17.724l-50.902-36.29c-13.103-9.341-17.31-27.112-9.785-41.337z" fill="#cde2ff"/><path d="m193.131 350.381c30.986 8.068 43.479-38.518 12.785-47.634-1.536-.456-3.15-.893-4.846-1.308-31.221-7.641-36.807-62.558-40.074-75.001-.535-2.039 1.072-4.008 3.176-3.882 20.629 1.248 38.785-8.34 46.379-13.063 2.409-1.499 5.293-2.054 8.075-1.498 28.98 5.792 45.934-6.983 50.297-29.154 2.796-14.207 6.184-29.606-4.068-39.831-23.886-23.822-55.568-2.125-64.01 4.452-1.45 1.13-3.156 1.86-4.966 2.184-30.51 5.458-100.88 40.337-89.066 78.504 12.196 39.399 45.724 73.13 58.007 89.202 12.284 16.072 1.394 28.924 26.737 36.586.529.16 1.053.308 1.574.443z" fill="#f9cfa9"/><path d="m205.916 302.748c-1.536-.456-3.15-.893-4.846-1.308-31.013-7.59-36.73-61.82-40.008-74.739-12.279-5.786-21.093-13.599-16.764-23.636 11-25.5 47.75-11.25 69.5-33s56.141-7.727 56.141-7.727l1.515 1.517c.97-9.305.087-18.174-6.6-24.843-23.886-23.822-55.568-2.125-64.01 4.452-1.45 1.13-3.156 1.86-4.965 2.184-30.51 5.458-100.881 40.337-89.066 78.504 12.196 39.399 45.723 73.13 58.007 89.202 12.283 16.072 1.394 28.924 26.737 36.586.528.16 1.053.307 1.573.443 30.987 8.066 43.48-38.519 12.786-47.635z" fill="#fbbc8d"/><path d="m41.564 148.434c17.435 9.069 39.164 11.207 55.909 1.208 9.915-5.921 17.286-15.469 27.264-21.284 23.624-13.767 54.771-3.328 80.155-13.493 3.779-1.513 7.462-3.537 10.122-6.618 6.088-7.049 5.353-17.839 1.865-26.475s-9.271-16.203-12.689-24.867c-3.617-9.17-4.136-19.363-1.987-28.97-69.14 15.492-127.23 60.205-160.639 120.499z" fill="#93dcfc"/></svg>