<svg height="512" viewBox="0 0 512 512" width="512" xmlns="http://www.w3.org/2000/svg"><g id="Static_bicycle" fill-rule="evenodd" data-name="Static bicycle"><path d="m142.81 103.66v65.429a80.716 80.716 0 0 0 -33.2 0v-50.346z" fill="#e3e6e8"/><path d="m310.05 207.66-39.27-9.34s84.1-58.25 104.22-72.19a11.745 11.745 0 0 0 4.97-8.14c1.14-8.69 3.5-26.6 5.29-40.14a20 20 0 0 1 19.82-17.39h54.76a38.16 38.16 0 1 1 0 76.32h-14.13a12.78 12.78 0 0 1 0-25.56h14.13a12.6 12.6 0 1 0 0-25.2h-40a6.8 6.8 0 0 0 -6.78 7.32c-3.45 28.63-16.64 131.4-16.64 131.4l-29.38-6.99s1.84-14.25 3.64-28.17a11.773 11.773 0 0 0 -18.38-11.18c-18.56 12.85-42.25 29.26-42.25 29.26z" fill="#686e74"/><path d="m445.49 60.46h14.35a38.16 38.16 0 1 1 0 76.32h-14.21a38.16 38.16 0 0 0 -.14-76.32zm-46.62 30.92a6.114 6.114 0 0 1 6.07-5.36h15.81s-.71.05-1.67.11a6.222 6.222 0 0 0 -5.79 5.42c-3.16 24.99-16.87 133.19-16.87 133.19l-13.93-3.31c2.25-17.57 13.5-107.12 16.38-130.05z" fill="#5e646a"/><path d="m413.8 435.74-30.64-120.59h-26.31l30.63 120.59z" fill="#e3e6e8"/><path d="m85.63 429.95 15.95-62.84h26.32l-15.96 62.84z" fill="#e3e6e8"/><path d="m127.9 367.11-15.96 62.84h-13.27l15.96-62.84z" fill="#ccd2d6"/><path d="m383.16 315.15 30.64 120.59h-13.27l-30.63-120.59z" fill="#ccd2d6"/><path d="m433.32 270.87a59.177 59.177 0 0 0 -46.52-57.8c-56.73-12.42-155.13-33.97-236.6-51.8a112.2 112.2 0 1 0 0 219.22c81.47-17.84 179.87-39.39 236.6-51.81a59.177 59.177 0 0 0 46.52-57.8z" fill="#ed3e54"/><path d="m113.78 159.36a112.1 112.1 0 0 1 36.42 1.91c81.47 17.83 179.87 39.38 236.6 51.8a59.177 59.177 0 0 1 46.52 57.8v.01a59.177 59.177 0 0 1 -46.52 57.8c-56.73 12.42-155.13 33.97-236.6 51.81a112.373 112.373 0 0 1 -36.42 1.9 112.184 112.184 0 0 0 11.58-1.9c81.46-17.84 179.87-39.39 236.6-51.81a59.169 59.169 0 0 0 46.51-57.8v-.01a59.169 59.169 0 0 0 -46.51-57.8c-56.73-12.42-155.14-33.97-236.6-51.8a112.223 112.223 0 0 0 -11.58-1.91z" fill="#e22d4b"/><path d="m388.87 270.88a15.68 15.68 0 0 0 -15.68-15.68h-34.3a15.68 15.68 0 0 0 0 31.36h34.3a15.68 15.68 0 0 0 15.68-15.68z" fill="#e3e6e8"/><path d="m145.21 320.47a55.748 55.748 0 1 1 21.79-20.04z" fill="#e3e6e8"/><path d="m95.39 81.28a21.283 21.283 0 0 1 21.28-21.28h76.7a22.278 22.278 0 0 1 22.28 22.28v4.7a9.116 9.116 0 0 1 -9.12 9.12h-14.01a53.226 53.226 0 0 0 -41.6 20.01c-5.87 7.34-13.41 13.88-21.63 13.88a33.914 33.914 0 0 1 -33.9-33.89z" fill="#fbd05e"/><path d="m141.95 426.99a8.723 8.723 0 0 0 -8.72-8.73h-68.14a21.3 21.3 0 0 0 -21.31 21.3v.01a12.421 12.421 0 0 0 12.43 12.42h77.02a8.706 8.706 0 0 0 8.72-8.72z" fill="#fbd05e"/><path d="m348.63 427.16a8.9 8.9 0 0 1 8.9-8.9h67.97a21.292 21.292 0 0 1 21.3 21.3v.01a12.421 12.421 0 0 1 -12.43 12.42h-76.84a8.894 8.894 0 0 1 -8.9-8.89z" fill="#fbd05e"/><g fill="#f8a434"><path d="m425.5 418.26a21.292 21.292 0 0 1 21.3 21.3v.01a12.421 12.421 0 0 1 -12.43 12.42h-16.71v-12.43a21.3 21.3 0 0 0 -21.31-21.3z"/><path d="m141.95 426.99a8.73 8.73 0 0 0 -8.72-8.73h-20.43v33.73h20.43a8.721 8.721 0 0 0 8.72-8.72z"/><path d="m164.22 60h29.15a22.278 22.278 0 0 1 22.28 22.28v4.7a9.116 9.116 0 0 1 -9.12 9.12h-14.01a53.226 53.226 0 0 0 -41.6 20.01c-5.87 7.34-13.41 13.88-21.63 13.88a33.659 33.659 0 0 1 -16.95-4.54 51.106 51.106 0 0 0 9.43-9.34 53.241 53.241 0 0 1 41.6-20.01h9.31a13.811 13.811 0 0 0 13.82-13.82 22.278 22.278 0 0 0 -22.28-22.28z"/><path d="m169.73 347.39-60.64-65.91a15 15 0 0 1 21.21-21.21l50.04 55.3z"/></g><path d="m190.94 347.39s16.45-16.45 26.96-26.95a12.059 12.059 0 0 0 0-17.07v-.01a17.926 17.926 0 0 0 -25.35 0l-22.82 22.82a15 15 0 0 0 21.21 21.21z" fill="#fbd05e"/></g></svg>