<svg id="Layer_1" enable-background="new 0 0 497 497" height="512" viewBox="0 0 497 497" width="512" xmlns="http://www.w3.org/2000/svg"><g><g><g><g><g><g><g><path d="m216 497v-480.171c0-9.294 7.532-16.829 16.824-16.829h31.352c9.292 0 16.824 7.535 16.824 16.829v480.171z" fill="#a9b2cc"/></g></g><path d="m264.176 0h-31.352c-.278 0-.549.028-.824.042 8.906.433 16 7.771 16 16.788v480.17h33v-480.171c0-9.294-7.532-16.829-16.824-16.829z" fill="#8f9bbf"/><path d="m230.234 42.334-216.579 375.126c-8.118 14.061 2.03 31.637 18.266 31.637h433.158c16.236 0 26.384-17.576 18.266-31.637l-216.579-375.126c-8.118-14.061-28.414-14.061-36.532 0z" fill="#ff2e2e"/><path d="m449.649 419.097h-402.298l201.149-348.401z" fill="#fff"/><path d="m248.5 70.697-20 34.64 181.149 313.76h40z" fill="#e1edf7"/></g></g></g></g><path d="m47.351 419.097 336.938-113.207 65.36 113.207z" fill="#4e4f59"/><path d="m384.289 305.89-33.501 11.256 58.861 101.951h40z" fill="#45464f"/><g><g><path d="m224.974 313.392c-.991 0-1.998-.197-2.966-.615-3.804-1.64-5.558-6.053-3.917-9.856l43.249-100.294c1.641-3.804 6.056-5.558 9.856-3.917 3.804 1.64 5.558 6.053 3.917 9.856l-43.249 100.294c-1.222 2.835-3.987 4.532-6.89 4.532z" fill="#4e4f59"/></g><g><path d="m214.909 253.655c-.063 0-.124-.001-.186-.001-11.478-.113-20.714-10.51-20.591-23.176.124-12.598 9.46-22.77 20.852-22.77.063 0 .125.001.188.001 5.691.057 11.17 2.713 15.029 7.288 3.644 4.318 5.618 9.961 5.561 15.888-.123 12.597-9.46 22.77-20.853 22.77zm.075-30.946c-3.134 0-5.81 3.613-5.852 7.916-.042 4.321 2.585 7.999 5.736 8.029.014.001.027.001.04.001 3.135 0 5.812-3.612 5.853-7.916.023-2.305-.715-4.517-2.025-6.069-.611-.725-1.906-1.942-3.711-1.96-.013-.001-.027-.001-.041-.001z" fill="#4e4f59"/></g><g><path d="m280.298 304.375c-.063 0-.124-.001-.186-.001-5.692-.057-11.171-2.713-15.03-7.288-3.644-4.318-5.618-9.961-5.561-15.888.124-12.597 9.461-22.77 20.853-22.77.063 0 .124.001.186.001 5.692.057 11.171 2.713 15.03 7.288 3.644 4.318 5.618 9.961 5.561 15.888-.125 12.597-9.462 22.77-20.853 22.77zm.076-30.946c-3.134 0-5.811 3.613-5.853 7.916-.023 2.305.715 4.517 2.025 6.069.611.725 1.906 1.942 3.711 1.96.014.001.027.001.04.001 3.134 0 5.811-3.613 5.853-7.916.023-2.305-.715-4.517-2.025-6.069-.611-.725-1.906-1.942-3.711-1.96-.014-.001-.027-.001-.04-.001z" fill="#4e4f59"/></g></g></g></svg>