<svg enable-background="new 0 0 256 256" height="512" viewBox="0 0 256 256" width="512" xmlns="http://www.w3.org/2000/svg"><g id="Layer_11"><g><g><g><ellipse cx="193.128" cy="175.25" fill="#EAECEE " rx="60.372" ry="60.372" transform="matrix(.707 -.707 .707 .707 -67.355 187.892)"/></g></g><g><g><ellipse cx="128" cy="62.872" fill="#EAECEE " rx="60.372" ry="60.372" transform="matrix(.973 -.23 .23 .973 -11.021 31.09)"/></g></g><g><g><ellipse cx="62.872" cy="175.25" fill="#EAECEE " rx="60.372" ry="60.372" transform="matrix(.973 -.23 .23 .973 -38.582 19.133)"/></g></g><g><g><circle cx="62.872" cy="175.25" fill="#EAECEE " r="50.635"/></g></g><g><g><circle cx="79.275" cy="165.112" fill="#edf4fc" r="8.087"/></g></g><g><g><path d="m78.393 140.591c-1.631-2.489-4.971-3.188-7.464-1.555l-15.636 10.244c-2.005 1.314-2.903 3.795-2.2 6.088l2.602 8.501-25.005 9.85c.459-.074.943-.121 1.47-.121 7.647 0 7.647 8.341 15.294 8.341 7.644 0 7.644-8.341 15.289-8.341 4.593 0 6.432 3.002 8.821 5.406-.029-.124-.036-.249-.074-.373l-6.902-22.549 12.25-8.026c2.491-1.632 3.187-4.974 1.555-7.465z" fill="#edf4fc"/></g></g><g><g><path d="m109.026 181.939c-7.642 0-7.842-8.341-15.484-8.341-7.65 0-7.849 8.341-15.499 8.341s-7.65-8.341-15.299-8.341c-7.644 0-7.644 8.341-15.289 8.341-7.647 0-7.647-8.341-15.294-8.341-7.644 0-7.644 8.341-15.289 8.341-1.806 0-3.176-.475-4.331-1.186 2.752 25.34 24.27 45.132 50.33 45.132 26.027 0 47.523-19.742 50.318-45.037-1.12.655-2.442 1.091-4.163 1.091z" fill="#5290db"/></g></g><g><g><circle cx="193.128" cy="175.25" fill="#EAECEE " r="50.635"/></g></g><g><g><circle cx="211.298" cy="146.531" fill="#edf4fc" r="8.074"/></g></g><g><g><path d="m205.863 185.439-11.235-6.32 11.981-12.755c2.452-2.608 1.58-6.85-1.39-8.434l-16.148-8.612c-1.956-1.043-4.352-.781-6.036.662l-15.071 12.918c-2.257 1.935-2.518 5.333-.584 7.59 1.932 2.253 5.329 2.521 7.59.584l12.279-10.525 6.699 3.573-11.871 12.637c-2.393 2.548-1.757 6.666 1.284 8.377l11.271 6.34-9.347 10.066c-2.023 2.178-1.897 5.584.282 7.607s5.584 1.896 7.607-.282l13.995-15.071c2.363-2.548 1.731-6.647-1.306-8.355z" fill="#edf4fc"/></g></g><g><g><path d="m183.361 185.133c-3.042-1.71-3.677-5.829-1.284-8.377l.098-.104-25.735 24.663c-2.146 2.057-2.219 5.464-.162 7.61 2.052 2.142 5.46 2.223 7.61.162l22.953-21.997z" fill="#edf4fc"/></g></g><g><g><path d="m238.33 158.538c-1.692-2.444-5.045-3.053-7.489-1.361l-11.374 7.875-14.31-7.156.063.034c2.97 1.584 3.842 5.826 1.39 8.434l-2.745 2.922 13.639 6.819c1.754.878 3.852.732 5.471-.389l13.995-9.689c2.443-1.691 3.052-5.044 1.36-7.489z" fill="#edf4fc"/></g></g><g><g><circle cx="128" cy="62.872" fill="#EAECEE " r="50.635"/></g></g><g><g><circle cx="149.491" cy="31.07" fill="#edf4fc" r="8.074"/></g></g><g><g><path d="m158.104 48.294h-9.453l-8.624-9.532c-1.994-2.204-5.398-2.374-7.602-.38-2.205 1.994-2.375 5.398-.38 7.602l10.227 11.303c1.02 1.128 2.47 1.771 3.991 1.771h11.842c2.972 0 5.383-2.41 5.383-5.383s-2.412-5.381-5.384-5.381z" fill="#edf4fc"/></g></g><g><g><path d="m123.43 57.519 11.766-8.051-3.153-3.484c-1.995-2.205-1.824-5.608.38-7.602.228-.206.476-.375.727-.536-.05.032-.105.051-.155.085l-20.454 13.995c-1.24.848-2.068 2.175-2.287 3.661-.218 1.485.195 2.995 1.139 4.163l10.108 12.515v15.322c0 2.972 2.41 5.383 5.383 5.383s5.383-2.41 5.383-5.383v-17.225c0-1.231-.422-2.425-1.195-3.382z" fill="#edf4fc"/></g></g><g><g><circle cx="153.797" cy="81.396" fill="#edf4fc" r="13.187"/></g></g><g><g><circle cx="99.972" cy="81.396" fill="#edf4fc" r="13.187"/></g></g><g><g><g><g><path d="m193.128 112.378c-34.668 0-62.872 28.204-62.872 62.872s28.204 62.872 62.872 62.872 62.872-28.204 62.872-62.872-28.204-62.872-62.872-62.872zm0 120.744c-31.911 0-57.872-25.961-57.872-57.872s25.961-57.872 57.872-57.872 57.872 25.961 57.872 57.872-25.961 57.872-57.872 57.872z"/></g></g></g></g><g><g><g><g><path d="m128 0c-34.668 0-62.872 28.204-62.872 62.872s28.204 62.872 62.872 62.872 62.872-28.204 62.872-62.872-28.204-62.872-62.872-62.872zm0 120.744c-31.911 0-57.872-25.961-57.872-57.872s25.961-57.872 57.872-57.872 57.872 25.961 57.872 57.872-25.961 57.872-57.872 57.872z"/></g></g></g></g><g><g><path d="m146.8 237.85c-4.5-.8-8-4.3-8.9-8.7 0-.2-.4-.2-.4 0-.9 4.4-4.4 7.9-8.9 8.7-.2 0-.2.3 0 .4 4.5.8 8 4.3 8.9 8.7 0 .2.4.2.4 0 .9-4.4 4.4-7.9 8.9-8.7.2-.1.2-.4 0-.4z" fill="#f5c84c"/></g></g><g><g><path d="m209.898 79.914c-3.053-.543-5.427-2.917-6.038-5.902 0-.136-.271-.136-.271 0-.611 2.985-2.985 5.359-6.038 5.902-.136 0-.136.203 0 .271 3.053.543 5.427 2.917 6.038 5.902 0 .136.271.136.271 0 .611-2.985 2.985-5.359 6.038-5.902.136-.067.136-.271 0-.271z" fill="#EAECEE "/></g></g><g><g><path d="m55.2 20.9h-2.3v-2.3c0-1.7-1.4-3.2-3.2-3.2s-3.2 1.4-3.2 3.2v2.3h-2.3c-1.7 0-3.2 1.4-3.2 3.2s1.4 3.2 3.2 3.2h2.3v2.3c0 1.7 1.4 3.2 3.2 3.2s3.2-1.4 3.2-3.2v-2.3h2.3c1.7 0 3.2-1.4 3.2-3.2s-1.4-3.2-3.2-3.2z" fill="#EAECEE"/></g></g><g><g><path d="m161.8 249.2c-1.878 0-3.4 1.522-3.4 3.4s1.522 3.4 3.4 3.4 3.4-1.522 3.4-3.4-1.522-3.4-3.4-3.4z" fill="#87d147"/></g></g><g><g><path d="m70.8 2.5c-1.878 0-3.4 1.522-3.4 3.4s1.522 3.4 3.4 3.4 3.4-1.522 3.4-3.4-1.522-3.4-3.4-3.4z" fill="#FF4500 "/></g></g><g><g><path d="m102.334 206.519c-2.089-2.156-4.6-4.15-8.792-4.15-4.905 0-7.492 2.749-9.57 4.958-2.034 2.161-3.312 3.384-5.929 3.384-2.599 0-3.839-1.214-5.808-3.36-2.035-2.219-4.568-4.981-9.492-4.981-4.922 0-7.454 2.762-9.488 4.981-1.966 2.146-3.206 3.36-5.801 3.36-2.597 0-3.837-1.214-5.804-3.36-2.035-2.219-4.566-4.981-9.49-4.981-4.472 0-6.958 2.266-8.939 4.39-.941 1.01-.886 2.592.124 3.533 1.009.941 2.592.887 3.533-.124 1.769-1.896 3.01-2.799 5.282-2.799 2.597 0 3.837 1.214 5.804 3.36 2.035 2.219 4.566 4.981 9.49 4.981 4.922 0 7.454-2.762 9.488-4.981 1.966-2.146 3.206-3.36 5.801-3.36 2.599 0 3.839 1.214 5.807 3.36 2.035 2.219 4.568 4.981 9.492 4.981 4.905 0 7.492-2.749 9.57-4.958 2.034-2.161 3.312-3.384 5.929-3.384 2.243 0 3.512.886 5.202 2.63.96.991 2.544 1.015 3.535.056.993-.962 1.017-2.544.056-3.536z"/></g></g><g><g><path d="m108.123 194.993c-2.143-.284-3.409-1.623-5.011-3.318-2.081-2.202-4.671-4.942-9.57-4.942-4.905 0-7.492 2.749-9.57 4.958-2.034 2.161-3.312 3.384-5.929 3.384-2.599 0-3.839-1.214-5.808-3.36-2.035-2.219-4.568-4.981-9.492-4.981-4.922 0-7.454 2.762-9.488 4.981-1.966 2.146-3.206 3.36-5.801 3.36-2.597 0-3.837-1.214-5.804-3.36-2.035-2.219-4.566-4.981-9.49-4.981-4.918 0-7.455 2.753-9.494 4.966-1.723 1.869-2.88 3.028-4.897 3.295-1.369.182-2.332 1.438-2.15 2.807s1.435 2.331 2.807 2.15c3.914-.519 6.134-2.928 7.918-4.865 1.973-2.142 3.216-3.354 5.816-3.354 2.597 0 3.837 1.214 5.804 3.36 2.035 2.219 4.566 4.981 9.49 4.981 4.922 0 7.454-2.762 9.488-4.981 1.966-2.146 3.206-3.36 5.801-3.36 2.599 0 3.839 1.214 5.807 3.36 2.036 2.219 4.568 4.981 9.493 4.981 4.905 0 7.492-2.749 9.57-4.958 2.034-2.161 3.312-3.384 5.929-3.384s3.898 1.22 5.937 3.376c1.82 1.926 4.085 4.322 7.986 4.84 1.371.176 2.626-.782 2.807-2.149.182-1.367-.781-2.624-2.149-2.806z"/></g></g><g><g><g><g><path d="m62.872 112.378c-34.668 0-62.872 28.204-62.872 62.872s28.204 62.872 62.872 62.872 62.872-28.204 62.872-62.872-28.204-62.872-62.872-62.872zm0 120.744c-31.911 0-57.872-25.961-57.872-57.872s25.961-57.872 57.872-57.872 57.872 25.961 57.872 57.872-25.961 57.872-57.872 57.872z"/></g></g></g></g><g><g><g><g><path d="m62.872 122.115c-29.299 0-53.135 23.836-53.135 53.135s23.836 53.135 53.135 53.135c29.298 0 53.134-23.836 53.134-53.135s-23.836-53.135-53.134-53.135zm0 101.27c-26.542 0-48.135-21.593-48.135-48.135s21.593-48.135 48.135-48.135 48.134 21.593 48.134 48.135-21.592 48.135-48.134 48.135z"/></g></g></g></g><g><g><g><g><path d="m79.275 154.525c-5.838 0-10.587 4.75-10.587 10.587s4.75 10.587 10.587 10.587 10.587-4.75 10.587-10.587-4.749-10.587-10.587-10.587zm0 16.175c-3.081 0-5.587-2.506-5.587-5.587s2.506-5.587 5.587-5.587 5.587 2.506 5.587 5.587-2.506 5.587-5.587 5.587z"/></g></g></g></g><g><g><path d="m80.484 139.221c-2.384-3.638-7.285-4.659-10.926-2.276l-15.635 10.244c-2.918 1.912-4.242 5.576-3.221 8.911l1.926 6.29-21.555 8.491c-1.285.506-1.916 1.958-1.41 3.243.507 1.285 1.96 1.914 3.243 1.41l23.706-9.339c1.214-.479 1.856-1.81 1.474-3.058l-2.603-8.5c-.375-1.222.111-2.564 1.18-3.265l15.635-10.244c1.334-.873 3.13-.5 4.003.833.424.646.57 1.418.413 2.175-.158.756-.6 1.405-1.246 1.828l-12.25 8.026c-.93.609-1.346 1.76-1.021 2.823l6.902 22.548c.33 1.076 1.32 1.769 2.39 1.769.242 0 .489-.035.733-.11 1.32-.404 2.063-1.802 1.659-3.123l-6.353-20.754 10.68-6.998c1.763-1.155 2.971-2.928 3.4-4.991.431-2.062.032-4.17-1.124-5.933z"/></g></g><g><g><path d="m114.643 180.269c-.556-1.264-2.032-1.84-3.294-1.283-.694.305-1.454.453-2.323.453-2.613 0-3.889-1.223-5.92-3.383-2.077-2.209-4.662-4.958-9.563-4.958-4.905 0-7.492 2.749-9.57 4.958-2.034 2.161-3.312 3.384-5.929 3.384-2.599 0-3.839-1.214-5.808-3.36-2.035-2.219-4.568-4.981-9.492-4.981-4.922 0-7.454 2.762-9.488 4.981-1.966 2.146-3.206 3.36-5.801 3.36-2.597 0-3.837-1.214-5.804-3.36-2.035-2.219-4.566-4.981-9.49-4.981-4.922 0-7.453 2.762-9.487 4.981-1.966 2.146-3.205 3.36-5.801 3.36-.837 0-1.569-.135-2.236-.412-1.277-.53-2.739.076-3.268 1.351s.076 2.738 1.351 3.268c1.287.534 2.645.793 4.153.793 4.922 0 7.454-2.762 9.488-4.981 1.966-2.146 3.205-3.36 5.801-3.36 2.597 0 3.837 1.214 5.804 3.36 2.035 2.219 4.566 4.981 9.49 4.981 4.922 0 7.454-2.762 9.488-4.981 1.966-2.146 3.206-3.36 5.801-3.36 2.599 0 3.839 1.214 5.807 3.36 2.036 2.219 4.568 4.981 9.493 4.981 4.905 0 7.492-2.749 9.57-4.958 2.034-2.161 3.312-3.384 5.929-3.384 2.613 0 3.889 1.223 5.92 3.383 2.077 2.209 4.662 4.958 9.563 4.958 1.576 0 2.993-.287 4.334-.876 1.264-.555 1.838-2.03 1.282-3.294z"/></g></g><g><g><g><g><path d="m193.128 122.115c-29.298 0-53.134 23.836-53.134 53.135s23.836 53.135 53.134 53.135c29.299 0 53.135-23.836 53.135-53.135s-23.836-53.135-53.135-53.135zm0 101.27c-26.542 0-48.134-21.593-48.134-48.135s21.593-48.135 48.134-48.135 48.135 21.593 48.135 48.135-21.594 48.135-48.135 48.135z"/></g></g></g></g><g><g><g><g><path d="m211.298 135.958c-5.831 0-10.574 4.743-10.574 10.574s4.743 10.574 10.574 10.574 10.574-4.743 10.574-10.574-4.744-10.574-10.574-10.574zm0 16.147c-3.073 0-5.574-2.5-5.574-5.574s2.5-5.574 5.574-5.574 5.574 2.5 5.574 5.574-2.501 5.574-5.574 5.574z"/></g></g></g></g><g><g><g><g><path d="m211.011 188.91c-.375-2.4-1.805-4.46-3.923-5.651l-8.453-4.755 9.795-10.428c1.671-1.777 2.399-4.199 1.997-6.645-.402-2.442-1.909-4.576-4.032-5.708l-16.147-8.612c-2.884-1.538-6.354-1.158-8.839.97l-15.072 12.919c-3.3 2.829-3.684 7.815-.855 11.115 2.827 3.3 7.815 3.684 11.114.855l10.983-9.414 2.31 1.232-9.635 10.256c-1.669 1.777-2.415 4.18-2.045 6.592s1.801 4.481 3.926 5.676l8.505 4.784-7.188 7.741c-1.433 1.542-2.179 3.551-2.101 5.656.078 2.104.97 4.052 2.513 5.485 1.515 1.406 3.439 2.102 5.36 2.102 2.117 0 4.229-.845 5.78-2.515l13.996-15.072c1.654-1.781 2.386-4.18 2.011-6.583zm-5.675 3.181-13.994 15.071c-1.083 1.165-2.91 1.232-4.074.151-1.165-1.082-1.233-2.91-.151-4.074l9.347-10.066c.521-.562.756-1.331.638-2.087-.119-.756-.577-1.417-1.245-1.793l-11.271-6.339c-.777-.437-1.3-1.193-1.435-2.076-.135-.882.137-1.76.748-2.41l11.871-12.637c.533-.567.771-1.351.645-2.119s-.604-1.433-1.291-1.799l-6.699-3.573c-.37-.197-.774-.294-1.176-.294-.584 0-1.164.205-1.627.602l-12.28 10.525c-1.207 1.034-3.029.894-4.064-.313-1.034-1.207-.894-3.03.313-4.065l15.07-12.917c.908-.778 2.177-.918 3.233-.354l16.147 8.611c.758.404 1.3 1.193 1.451 2.108.086.527.11 1.54-.707 2.409l-11.981 12.754c-.526.56-.765 1.331-.649 2.09.117.759.576 1.423 1.246 1.8l11.235 6.32c.773.435 1.296 1.188 1.433 2.065.139.882-.129 1.759-.733 2.41z"/></g></g></g></g><g><g><path d="m188.281 185.71c-.955-.996-2.537-1.03-3.535-.075l-22.588 21.647c-.556.534-1.28.823-2.056.801-.77-.017-1.486-.332-2.018-.888-.533-.556-.817-1.286-.801-2.056.017-.77.332-1.487.888-2.02l25.188-24.139c.997-.956 1.03-2.538.075-3.535-.956-.997-2.537-1.03-3.535-.075l-25.188 24.139c-1.52 1.457-2.382 3.418-2.426 5.523-.045 2.105.733 4.102 2.189 5.622 1.455 1.519 3.415 2.38 5.518 2.427.06.001.119.002.179.002 2.041 0 3.97-.774 5.448-2.191l22.588-21.646c.995-.956 1.029-2.538.074-3.536z"/></g></g><g><g><path d="m240.385 157.116c-1.198-1.732-2.999-2.893-5.071-3.269-2.07-.377-4.166.076-5.897 1.274l-10.157 7.032-12.286-6.144c-1.234-.619-2.737-.118-3.354 1.118-.618 1.235-.117 2.737 1.118 3.354l13.61 6.806c.816.408 1.791.34 2.541-.18l11.374-7.875c.634-.438 1.399-.602 2.157-.467.757.138 1.416.562 1.854 1.196.438.633.604 1.399.466 2.156s-.563 1.416-1.195 1.854l-13.995 9.688c-.867.6-1.989.68-2.93.209l-12.944-6.472c-1.235-.619-2.736-.117-3.354 1.118s-.117 2.737 1.118 3.354l12.943 6.472c1.114.558 2.321.833 3.524.833 1.576 0 3.145-.473 4.488-1.402l13.995-9.688c1.731-1.198 2.892-3 3.269-5.071.378-2.071-.076-4.165-1.274-5.896z"/></g></g><g><g><g><g><path d="m128 9.737c-29.299 0-53.135 23.836-53.135 53.135 0 29.298 23.836 53.134 53.135 53.134s53.135-23.836 53.135-53.134c0-29.299-23.836-53.135-53.135-53.135zm0 101.269c-26.542 0-48.135-21.593-48.135-48.134s21.593-48.135 48.135-48.135 48.135 21.593 48.135 48.135-21.593 48.134-48.135 48.134z"/></g></g></g></g><g><g><g><g><path d="m149.492 20.496c-5.831 0-10.574 4.744-10.574 10.574s4.744 10.574 10.574 10.574 10.574-4.743 10.574-10.574-4.744-10.574-10.574-10.574zm0 16.148c-3.074 0-5.574-2.5-5.574-5.574s2.5-5.574 5.574-5.574c3.073 0 5.574 2.5 5.574 5.574-.001 3.073-2.501 5.574-5.574 5.574z"/></g></g></g></g><g><g><g><g><g><path d="m158.104 45.793h-8.344l-7.879-8.709c-1.412-1.561-3.348-2.479-5.452-2.584-2.101-.107-4.121.615-5.682 2.027-1.562 1.413-2.479 3.349-2.584 5.451-.105 2.103.615 4.121 2.028 5.682l10.227 11.303c1.491 1.649 3.621 2.594 5.845 2.594h11.842c4.346 0 7.882-3.536 7.882-7.882-.001-4.345-3.537-7.882-7.883-7.882zm0 10.766h-11.842c-.813 0-1.592-.346-2.137-.948l-10.227-11.304c-.517-.571-.78-1.309-.742-2.078s.374-1.476.945-1.993c.534-.483 1.215-.745 1.931-.745.049 0 .098.001.147.003.769.039 1.477.374 1.993.945l8.624 9.532c.474.524 1.147.823 1.854.823h9.453c1.589 0 2.882 1.293 2.882 2.883s-1.292 2.882-2.881 2.882z"/></g></g></g></g></g><g><g><path d="m136.538 48.551c-.78-1.14-2.335-1.43-3.475-.652l-11.044 7.557c-.576.394-.96 1.011-1.062 1.701-.101.69.09 1.391.529 1.934l7.642 9.46c.413.512.641 1.155.641 1.812v17.224c0 1.589-1.293 2.882-2.883 2.882s-2.882-1.293-2.882-2.882v-15.323c0-.572-.196-1.126-.555-1.571l-10.108-12.515c-.503-.624-.726-1.436-.609-2.23.116-.793.563-1.507 1.225-1.96l19.943-13.647c1.14-.78 1.431-2.336.652-3.475-.779-1.14-2.335-1.431-3.475-.652l-19.946 13.647c-1.81 1.238-3.031 3.192-3.349 5.362-.318 2.169.29 4.392 1.667 6.097l9.553 11.828v14.438c0 4.346 3.536 7.882 7.882 7.882 4.347 0 7.883-3.536 7.883-7.882v-17.224c0-1.796-.622-3.555-1.75-4.953l-5.941-7.355 8.81-6.028c1.139-.78 1.431-2.336.652-3.475z"/></g></g><g><g><g><g><path d="m153.797 65.709c-8.65 0-15.687 7.038-15.687 15.688s7.037 15.687 15.687 15.687 15.688-7.037 15.688-15.687-7.038-15.688-15.688-15.688zm0 26.374c-5.893 0-10.687-4.794-10.687-10.687s4.794-10.688 10.687-10.688 10.688 4.794 10.688 10.688-4.795 10.687-10.688 10.687z"/></g></g></g></g><g><g><g><g><path d="m99.972 65.709c-8.65 0-15.687 7.038-15.687 15.688s7.037 15.687 15.687 15.687 15.687-7.037 15.687-15.687-7.037-15.688-15.687-15.688zm0 26.374c-5.893 0-10.687-4.794-10.687-10.687s4.794-10.688 10.687-10.688 10.687 4.794 10.687 10.688-4.794 10.687-10.687 10.687z"/></g></g></g></g></g></g></svg>