<svg id="Capa_1" enable-background="new 0 0 512 512" height="512" viewBox="0 0 512 512" width="512" xmlns="http://www.w3.org/2000/svg"><g><path d="m281.22 31.22h-50.44c-3.314 0-6-2.686-6-6v-19.22c0-3.314 2.686-6 6-6h50.439c3.314 0 6 2.686 6 6v19.22c.001 3.313-2.686 6-5.999 6z" fill="#f1faff"/><path d="m235.187 31.22h41.626v31.22h-41.626z" fill="#595959"/><path d="m349.659 124.878h-187.318v-32.439c0-16.569 13.431-30 30-30h127.317c16.569 0 30 13.431 30 30v32.439z" fill="#818181"/><path d="m319.659 62.439h-26.195c17.242 0 31.22 13.977 31.22 31.22v31.22h24.976v-32.44c-.001-16.569-13.433-30-30.001-30z" fill="#595959"/><path d="m349.659 179.959v-55.081h-187.318v55.081c0 4.712 1.872 9.23 5.203 12.562 3.332 3.332 5.203 7.85 5.203 12.562v6.096c0 4.712-1.872 9.23-5.203 12.562-3.332 3.332-5.203 7.85-5.203 12.562v234.072c0 22.989 18.637 41.626 41.626 41.626h104.061c22.991 0 41.63-18.638 41.63-41.63v-234.069c0-4.712-1.872-9.23-5.203-12.562-3.332-3.332-5.203-7.85-5.203-12.562v-6.096c0-4.712 1.872-9.23 5.203-12.562 3.332-3.331 5.204-7.85 5.204-12.561z" fill="#97e4f9"/><path d="m344.532 192.444c3.387-3.346 5.127-8.02 5.127-12.781v-54.785h-24.976v54.785c0 4.762-1.739 9.435-5.127 12.781-3.379 3.339-5.28 7.89-5.28 12.638v5.8c0 4.762 1.74 9.435 5.127 12.782 3.379 3.339 5.28 7.89 5.28 12.638v234.072c0 22.989-18.637 41.626-41.626 41.626h24.972c22.991 0 41.63-18.638 41.63-41.63v-233.773c0-4.762-1.739-9.435-5.127-12.781-3.379-3.339-5.28-7.89-5.28-12.638v-6.096c0-4.748 1.9-9.299 5.28-12.638z" fill="#62d8f9"/><circle cx="256" cy="258.081" fill="#f9f5f8" r="62.439"/><path d="m277.507 268.835c0 11.878-9.629 21.507-21.507 21.507s-21.507-9.629-21.507-21.507c0-8.861 11.969-28.44 18.049-37.814 1.627-2.508 5.288-2.508 6.915 0 6.081 9.374 18.05 28.953 18.05 37.814z" fill="#97e4f9"/><g><path d="m256 107.629c-4.267 0-7.726-3.459-7.726-7.726v-12.489c0-4.267 3.459-7.726 7.726-7.726s7.726 3.459 7.726 7.726v12.488c0 4.268-3.459 7.727-7.726 7.727z" fill="#595959"/></g><g><path d="m285.138 107.629c-4.267 0-7.726-3.459-7.726-7.726v-12.489c0-4.267 3.459-7.726 7.726-7.726s7.726 3.459 7.726 7.726v12.488c.001 4.268-3.459 7.727-7.726 7.727z" fill="#595959"/></g><g><path d="m314.277 107.629c-4.267 0-7.726-3.459-7.726-7.726v-12.489c0-4.267 3.459-7.726 7.726-7.726s7.726 3.459 7.726 7.726v12.488c0 4.268-3.459 7.727-7.726 7.727z" fill="#595959"/></g><g><path d="m226.862 107.629c-4.267 0-7.726-3.459-7.726-7.726v-12.489c0-4.267 3.459-7.726 7.726-7.726s7.726 3.459 7.726 7.726v12.488c0 4.268-3.459 7.727-7.726 7.727z" fill="#595959"/></g><g><path d="m197.723 107.629c-4.267 0-7.726-3.459-7.726-7.726v-12.489c0-4.267 3.459-7.726 7.726-7.726s7.726 3.459 7.726 7.726v12.488c.001 4.268-3.459 7.727-7.726 7.727z" fill="#595959"/></g></g></svg>