<svg id="Layer_1" data-name="Layer 1" xmlns="http://www.w3.org/2000/svg" viewBox="0 0 436.72 424.57"><defs><style>.cls-1{fill:#f9c2bb;}.cls-2{fill:#dfe5df;}.cls-3{fill:#95b296;}.cls-4{fill:#dbedf1;}.cls-5{fill:#e895a7;}.cls-6{fill:#eea0ad;}.cls-7{fill:#f2f2f2;}.cls-8{fill:#3b6979;}.cls-9{fill:#09141e;}.cls-10{fill:#182538;}.cls-11{fill:#312322;}.cls-12{fill:#c63f39;}.cls-13{fill:#a1c1c9;}.cls-14{fill:#f2b6c6;}.cls-15{fill:#231611;}.cls-16{fill:#30231d;}.cls-17{fill:#f3eae1;}.cls-18{fill:#e8e4e3;}.cls-19{fill:#140b08;}.cls-20{fill:#231510;}</style></defs><path class="cls-1" d="M116.1,344.42q-1.68-28.79-3.37-57.56c-.71-12.07-.68-24.28-3.11-36.18-1.81-8.82-6.34-27.05-17.87-27.58-3.66-.17-7.1,2.08-9.3,5-6.57,8.72-6.73,21.28-4.63,31.49,2.93,14.31,9.83,27.94,15.46,41.33,1,2.39,2,4.77,3,7.17l-2.72-4.36C87,293.1,78.08,282.86,65.63,279.27c-2.44-.7-5.11-1.14-7.49-.23-3.36,1.28-4.27,5.55-3.49,8.73a18.73,18.73,0,0,0,4,7.13c12.9,16,31.28,26.2,42.83,43.86,1.39,2.12,3.91,7.21,6.69,7.76a3.83,3.83,0,0,0,1.8,0C111.81,348.7,116.32,348,116.1,344.42Z" transform="translate(-31.8 -38.08)"/><path class="cls-2" d="M464.62,284.33a8.85,8.85,0,0,0-5.29-5,13.1,13.1,0,0,0-7.46-.08c-16.36,4.13-29.38,17.58-38.63,31.06a121,121,0,0,0-12.66,24.34c2.44-32.28,17.36-61.83,28.75-92.11,3.55-9.47,10-22.81,2.65-32.16-13.83-17.47-35.82,28.18-39.71,37.52-10,23.95-14.21,50.83-11,76.73v0a81.21,81.21,0,0,0-4.56-8.18c-5.07-7.93-11.38-15.52-19.09-21-10.08-7.17-33.72-9.87-27.89,9.31,3.11,10.26,12.81,16.51,21.48,21.76,10.24,6.19,19.61,12.09,27.1,21.69,4.14,5.3,7.18,11,10.36,17,.73,1.37,1.61,2.86,3.05,3.3,1.86.56,3,0,3.6-1.24a2.55,2.55,0,0,0,.91-.21,2.65,2.65,0,0,0,.52-.28c1.38-.91,2.51-4.88,3.33-6.37.37-.67.74-1.34,1.12-2,1-1.72,2-3.42,3.05-5.09,7.43-11.79,17-22.12,27.31-31.41,7.65-6.87,15.74-12.65,24-18.68a26.73,26.73,0,0,0,8.79-11A10.26,10.26,0,0,0,464.62,284.33Z" transform="translate(-31.8 -38.08)"/><path class="cls-3" d="M463.5,332.93c-3.74-4.16-9.89-6.95-19.19-7.58a108.8,108.8,0,0,1-27.7-6c-12.19-4.18-23.67-8.56-37-6s-26.49,8.29-40.43,8.3c-20.47,0-40.36-6.36-59.33-13.48-30.77-11.54-64.05-30.45-98-24.42-18.22,3.23-34.88,13.92-52.13,20.37q-17,6.38-34.65,11.13c-10.68,2.88-21.36,3.83-30.1,11.09C49.87,338.79,47.92,360.19,53,378c9.19,32,44,37,72.41,37.6l6.22.13c38,0,76,2.87,114,3.47q59.55.91,119.1-.92c22.21-.7,44.12.61,64.18-10.75a78.8,78.8,0,0,0,31.45-33C466.14,362.94,473.68,344.23,463.5,332.93Z" transform="translate(-31.8 -38.08)"/><path class="cls-4" d="M159.05,47.54c-2.4-.71-5.88.06-7.86-1.54-1.24-1-1.53-2.71-2.3-4.09a7.74,7.74,0,0,0-5.29-3.6c-7.42-1.46-12.07,4.31-17.77,7.7a3.16,3.16,0,0,1-1.73.57c-1.66-.09-2.83-2.5-4-3.5a8.19,8.19,0,0,0-5.25-2.19c-5.18-.13-9.53,4.34-9.85,9.36-.4,6.2,4,11,9.26,13.62,6.51,3.2,13.89,3.57,20.27,0A18.23,18.23,0,0,1,139,61.72c5.95-1.51,11.14,3.66,17,3.36,3-.15,6.09-2.38,7.73-4.85a8.52,8.52,0,0,0,.31-8.88A8,8,0,0,0,159.05,47.54Z" transform="translate(-31.8 -38.08)"/><path class="cls-4" d="M409.47,73.76a11.12,11.12,0,0,0-1.77-2.91A11.76,11.76,0,0,0,396.78,67c-2.57.48-5.26,1.82-7.65.76-1.87-.82-2.84-2.85-4.2-4.37a10,10,0,0,0-8.38-3.21c-3.92.43-6.29,3.21-8.2,6.4-2.54,4.25-4.36,5.15-9.4,5.77-3.19.4-6.55,1.63-6.78,5.21s2.23,7.55,4.92,9.84a22.63,22.63,0,0,0,11.62,4.74c4.4.63,9.27.31,12.67-2.55a11,11,0,0,1,2.46-1.87c2.2-1,4.63.48,6.83,1.44a15.7,15.7,0,0,0,11.08.65,12.8,12.8,0,0,0,8-7.52A11.76,11.76,0,0,0,409.47,73.76Z" transform="translate(-31.8 -38.08)"/><path class="cls-5" d="M364.89,208.11a7.24,7.24,0,0,0-1.8-1.68,6.61,6.61,0,0,0-1.45-.74c-.49-.17-1.34-.4-1.77,0a1.55,1.55,0,0,0-.33,1.06,11.14,11.14,0,0,1-.93,3.68c-.1.22-.29.48-.52.42a.51.51,0,0,1-.27-.29,2.29,2.29,0,0,1,0-1.57,15.93,15.93,0,0,1,.64-1.47,1.14,1.14,0,0,0,.13-.51.45.45,0,0,0-.27-.43.61.61,0,0,0-.3,0,2.94,2.94,0,0,0-1.57,1.4,4.38,4.38,0,0,0-.67,2.13,12.79,12.79,0,0,0,.62,3.33c.2.81.67,1.52.83,2.34.75,3.75-1.61,7.81-3.15,11.07-1.79,3.78-3.77,7.45-5.81,11.08-1.87,3.32-3.9,6.55-5.15,10.16a.54.54,0,0,0-.05-.11,4.47,4.47,0,0,0-.77-2,58.37,58.37,0,0,1-3.11-8.24c-2.09-5.89-4.57-11.57-9.13-16-2-1.9-5.14-5.25-8.16-4.81-2.74.4-3,3.85-2.41,6a22.85,22.85,0,0,0,1.14,3c3.86,9.11,7.57,18.34,12.72,26.82,1.68,2.76,3.44,5.5,5.24,8.18,1.17,1.73,3.45,4.83,5.81,3.06,7.5-5.66,11-15.26,13.95-23.83a87.15,87.15,0,0,0,4.16-16c.26-1.82.43-3.65.63-5.47.08-.72,0-1.46.17-2.17a4.73,4.73,0,0,1,1-1.89,10.88,10.88,0,0,0,.94-1.48A4.72,4.72,0,0,0,364.89,208.11Z" transform="translate(-31.8 -38.08)"/><path class="cls-6" d="M346.84,193.62c-1-1.49-2.2-2.85-3.13-4.39a27,27,0,0,1-2.8-7.59,25.59,25.59,0,0,0-1.37-3.62c-.42-1-.89-2-1.39-2.9a4.32,4.32,0,0,0-.85-1.78,14.49,14.49,0,0,0-9.28-4.88c-3.56-.51-7.21-.51-10.43,1.33-3.88,2.21-6.07,6.43-6.86,10.71-.72,3.85.12,7.2,1.71,10.73a25.71,25.71,0,0,0,2.46,4.45c1.16,1.6,3.5,3.35,3.86,5.4a39.3,39.3,0,0,1-5.2,9c-1.06,1.47-2.09,3-3.2,4.35a11.43,11.43,0,0,1-1.91,1.45,13.45,13.45,0,0,0-1.93,2c-3.06,3.87-3.47,8.95-3.24,13.7.13,2.67.26,5.33.61,8,.2,1.51.45,3,.76,4.51,1.16,5.58,2.17,10.92,1.7,16.65a29.17,29.17,0,0,1-.55,4.27,19.48,19.48,0,0,1-1.62,3.86c-.76,1.6-1.55,3.18-2.42,4.72,0,.06-.38.7-.39.69a50.5,50.5,0,0,0,18.75,3.91,50,50,0,0,0,10.43-.94c.15,0,.05-4.55.05-5,0-1.66,0-3.33.1-5,.09-3.05.24-6.18.58-9.24.29-2.6.4-4.89,1.74-7.22a56.86,56.86,0,0,0,3-5.68c2.11-4.8,4.45-10.48,1.58-15.48-2-3.45-5.21-6-7.62-9.19a20.51,20.51,0,0,1-2.9-4.64c-1.23-3.08,1.44-7.29,3-9.84.51-.84,1.07-1.65,1.48-2.5a48.67,48.67,0,0,0,6.5,1.74,2.23,2.23,0,0,0,1.51-.07,3.29,3.29,0,0,0,.9-1.09,18,18,0,0,0,1.32-2.34,18.24,18.24,0,0,0,1.57-5.11,1,1,0,0,1,.29-.68,1,1,0,0,1,.51-.14l1.91-.15a1.4,1.4,0,0,0,1.07-.4C347.45,194.73,347.16,194.09,346.84,193.62Z" transform="translate(-31.8 -38.08)"/><path class="cls-7" d="M232.22,430a5.19,5.19,0,0,1,2-2.47c1.8-1.12,4-1.26,6.15-1.37,10.52-.55,21.07-1.09,31.56-.16,12,1.07,23.81,4.05,35.86,4.71,16.26.88,32.49-2.52,48.77-2.15a105.72,105.72,0,0,1,22.67,3c2.07.5,5.84.83,7,2.94,1.72,3.07-1.52,5.12-4,5.84-11.26,3.27-23.25,2.62-35,1.76-19.93-1.47-39.86-3.45-59.85-3.2-11.73.15-23.46,1.08-35.17.4-6.17-.36-12.5-1.22-17.82-4.35a5.58,5.58,0,0,1-2.18-2A3.49,3.49,0,0,1,232.22,430Z" transform="translate(-31.8 -38.08)"/><path class="cls-6" d="M214.29,360.27c-.95,1.73-1.91,3.44-2.85,5.17-1.19,2.17-2.36,4.37-3.49,6.58a4.53,4.53,0,0,0-.43.85,1.51,1.51,0,0,0,.2.72l.67,1.75c.24.59.47,1.17.71,1.75a7.43,7.43,0,0,0,.69,1.67.39.39,0,0,0,.37-.24,1.27,1.27,0,0,0,.08-.48c0-.65,0-1.3,0-1.94a4.09,4.09,0,0,1,.15-1.31c.12-.38.44-.5.77-.71.77-.51,1.57-1,2.36-1.48,1.22-.73,2.44-1.42,3.7-2.08l1.1-.57a3.84,3.84,0,0,0,.68-.41,3.72,3.72,0,0,0,.42-.47c.06-.29.11-.58.19-.87.52-2.05,1.29-4,2-6.05a4.3,4.3,0,0,0-2-.55,2.56,2.56,0,0,1-.27-.05C218.94,361.45,214.35,360.22,214.29,360.27Z" transform="translate(-31.8 -38.08)"/><path class="cls-8" d="M214.29,360.27c-.95,1.73-1.91,3.44-2.85,5.17-1.19,2.17-2.36,4.37-3.49,6.58a4.53,4.53,0,0,0-.43.85,1.51,1.51,0,0,0,.2.72l.67,1.75c.24.59.47,1.17.71,1.75a7.43,7.43,0,0,0,.69,1.67.39.39,0,0,0,.37-.24,1.27,1.27,0,0,0,.08-.48c0-.65,0-1.3,0-1.94a4.09,4.09,0,0,1,.15-1.31c.12-.38.44-.5.77-.71.77-.51,1.57-1,2.36-1.48,1.22-.73,2.44-1.42,3.7-2.08.47-2,1-4,1.52-5.94.28-1,.56-2,.87-3a2.56,2.56,0,0,1-.27-.05C218.94,361.45,214.35,360.22,214.29,360.27Z" transform="translate(-31.8 -38.08)"/><path class="cls-6" d="M363.46,429.71v7.47h20.76c0-.27,0-.53,0-.81a84.13,84.13,0,0,1-9.75-5.28c-.73-.44-1.44-.91-2.15-1.38Z" transform="translate(-31.8 -38.08)"/><path class="cls-8" d="M363.46,431.71v5.47h20.76c0-.27,0-.53,0-.81a84.13,84.13,0,0,1-9.75-5.28c-.87.06-1.73.11-2.55.18-2.73.22-5.45.37-8.19.44Z" transform="translate(-31.8 -38.08)"/><path class="cls-9" d="M318.72,295.68a109.05,109.05,0,0,0-8.56-9.79c-2.72-2.7-5.72-5-8.37-7.76-4.78,5.17-7.7,11.85-9.88,18.48-.26.81-.53,1.61-.79,2.42C286,314.9,280.47,331,276.94,347.27c-.53,2.43-.7,4.94-1.46,7.33a.27.27,0,0,1-.15,0,5.87,5.87,0,0,1-.59.05c-2.45.05-4.87-.3-7.33-.17a67.25,67.25,0,0,0-7.48.9c-5,.87-9.89,2.09-14.89,2.84-4.09.6-8.16,1.34-12.25,2a81.51,81.51,0,0,1-12.26,1.24q-.87,4.51-2.13,8.95c2,.33,4.11.66,6.18,1q6.69,1,13.4,1.76a177.68,177.68,0,0,0,20.21,1.35,91.1,91.1,0,0,0,13-.87c1.92-.27,3.8-.71,5.73-.94a19.62,19.62,0,0,0,8.12-2.45c3.66-2.25,5.78-6.21,7.89-9.81,2.59-4.42,5-8.95,7.56-13.39,3.45-6,7.06-12,10.37-18.08,4.61-8.52,9.75-16.75,14.59-25.14C323.17,301.15,320.91,298.44,318.72,295.68Z" transform="translate(-31.8 -38.08)"/><path class="cls-10" d="M363.14,430.71l.06.08c3.33-.32,6.66-.62,10-.92-3.49-20.16-7.08-40.44-12-60.28s-11.41-39.51-20.28-58c-5.16-10.79-11-22.2-10-34.53a1.63,1.63,0,0,1-.11-.17c-1.21.28-11.79-.67-12.81-.79-1.95-.23-3.89-.54-5.84-.86s-3.93-.52-5.88-.88c-.77-.14-1.54-.31-2.3-.49-.35-.08-.7-.15-1.05-.24l-.54-.16a1.94,1.94,0,0,0-.5-.2l-.15,0c-.14,0-.26.26-.35.36a20.83,20.83,0,0,0-2.62,3.77,25.38,25.38,0,0,0-3,6.54,20.27,20.27,0,0,0-.44,7c1,9.45,6.93,17.69,12.15,25.31,10.46,15.25,23.94,28.53,33.35,44.61a41.48,41.48,0,0,1,3.11,6.77c.24.66.46,1.31.65,1.95.94,3.2.76,6.39.87,9.66.29,9.62,2.93,19,6.54,27.83,1.82,4.45,3.87,8.79,6,13.1C359.67,423.64,360.9,427.54,363.14,430.71Z" transform="translate(-31.8 -38.08)"/><path class="cls-11" d="M339.8,177.57a1.34,1.34,0,0,0,0-.2,10.77,10.77,0,0,0-3.86-6.78,17.34,17.34,0,0,0-14.83-4.07,16.54,16.54,0,0,0-11.77,9.76,5.08,5.08,0,0,0-.5-.44c-4.67-3.52-11.47-4.33-17.15-4.32-13.31,0-26.35,6.31-39.8,3.85-7.49-1.37-13.93-5.59-17.07-12.69-.83-1.87-1.17-4.65-3.07-5.78-6.56-3.9-10.7,8-11.74,12.33-3.13,13,2.11,28.76,15.16,34.22,11.81,4.93,26.16,2.12,37.4-3,1.78-.81,3.52-1.71,5.23-2.66,6.64-3.72,12.14-9.1,18.78-12.77a20.8,20.8,0,0,1,10.91-2.92l.47,0c0,.49,0,1,0,1.49.28,6,3.74,11.08,7.66,15.36,1,1.07,2.23,2.86,3.8,3s2.81-1.34,3.54-2.46a6.39,6.39,0,0,0,1.14-2.9,10.41,10.41,0,0,0-.8-3.82,9.85,9.85,0,0,1-.25-6.38c.76-2,2.92-3.65,5-3.18a4.34,4.34,0,0,1,3.33,4.06c0,.71-.07,1.41,0,2.11a.29.29,0,0,0,.05.18.3.3,0,0,0,.32.09,2,2,0,0,0,1-.53C336.28,186.15,340.08,182.62,339.8,177.57Z" transform="translate(-31.8 -38.08)"/><path class="cls-12" d="M308.72,178.66c.16-.57.34-1.13.53-1.69a10.59,10.59,0,0,0,.41-1.24c0-.15.13-.36,0-.43a.94.94,0,0,0-.37,0,.88.88,0,0,0-.73.56c-.19.37-.32.77-.47,1.14-.29.74-.57,1.5-.83,2.25-.37,1-.83,2.68.14,3.53.23.21.51.3.66,0a2.11,2.11,0,0,0,.13-.75A12.76,12.76,0,0,1,308.72,178.66Z" transform="translate(-31.8 -38.08)"/><path class="cls-13" d="M338.38,230.23a10.52,10.52,0,0,0-1.76-2.15.31.31,0,0,1-.07-.09,6.07,6.07,0,0,1-1.43,1.29,5,5,0,0,1-3,1.09c-2.77,0-5-2.36-6.59-4.34s-2.79-3.86-4.3-5.69a20.27,20.27,0,0,0-4.82-4.18c-2.13-1.34-4.7-2.59-7.12-1.28a14.55,14.55,0,0,0-5.41,5.24c-3.36,5.55-2.66,12.45-1.15,18.47l1.32,5.24.66,2.56a12.67,12.67,0,0,0,.55,2.36c6.86,1.78,13.57,3.43,20.89,3.57,2.22,0,4.44,0,6.66-.12a3.45,3.45,0,0,1,.12-.43,16.76,16.76,0,0,1,2.05-3.58C338.29,243.23,341.71,235.78,338.38,230.23ZM319,236.65a8.52,8.52,0,0,1-9.77,2.47,8.65,8.65,0,0,1-4.12-3.76c-3.32-5.71-2.89-14.22,3.58-17.54a5.37,5.37,0,0,1,4-.29,9.43,9.43,0,0,1,4.7,3.37,17.5,17.5,0,0,1,2.72,5C321.27,229.44,321.37,233.6,319,236.65Z" transform="translate(-31.8 -38.08)"/><path class="cls-14" d="M315.61,222.4c-1.68-4.28-7.21-2.75-10.44-1.52-2,.76-3.95,1.63-5.89,2.54l-25,11.66a12,12,0,0,0-4.32,3,4.19,4.19,0,0,0-.94,2.27,7.34,7.34,0,0,0,1,3.64,157.61,157.61,0,0,0,15.82,26.14,1.64,1.64,0,0,0-.2.65c0,.16-.08.33-.11.5s-.06.31-.08.46a4,4,0,0,0,.18,1.94,3.41,3.41,0,0,0,1.14,1.48,5.2,5.2,0,0,1,1.42,1.22,2.24,2.24,0,0,1,.33,2.13.3.3,0,0,0-.05.24c0,.1.17.13.28.14a13.73,13.73,0,0,0,6-.28c.7-.24,1.91-.63,2.25-1.36a2.19,2.19,0,0,0,.15-.76l.24-3.48a1.42,1.42,0,0,0-.06-.65,1.35,1.35,0,0,0-.45-.5c-1-.78-2-1.53-3-2.23a9.18,9.18,0,0,0-2.2-1.38q-4.4-11.82-8.77-23.64c5.37-2.28,11.08-3.61,16.57-5.59a43.68,43.68,0,0,0,8.28-3.88c3.18-2,6.54-4.38,7.93-8A6.68,6.68,0,0,0,315.61,222.4Z" transform="translate(-31.8 -38.08)"/><path class="cls-7" d="M267.56,444c-7.07.28-14.16.68-21.22.15a201.83,201.83,0,0,0-26.83-.46c-19.47,1.11-39,1.47-58.46,1.27q-14.78-.15-29.55-.7c-9.06-.33-18.09-1.9-27.27-2h-3.48c-12.37.11-24.68,1.44-37,2.86-6.14.72-12.28,1.46-18.43,2.09-3.7.38-12-.15-13.45,4.59-1.51,5,12.55,6.9,15.61,7.57A135.73,135.73,0,0,0,65,462a228.61,228.61,0,0,0,35.4-.08c22.69-1.55,45.12-3.4,67.9-2.63,19.83.68,39.64,1.94,59.48,2.25,13.87.21,28.47.93,42-3.13,4.13-1.23,16.1-5,16.81-10.19.6-4.42-7.19-4.36-9.95-4.42-1.13,0-2.26,0-3.38,0C271.37,443.87,269.46,443.94,267.56,444Z" transform="translate(-31.8 -38.08)"/><path class="cls-5" d="M243.42,447V436.09h0a1,1,0,0,1-.07-.18,146.07,146.07,0,0,0-6.54-13.14c-3.94-7.14-8.23-14.11-12-21.34-6.09-11.63-11-24.39-10.41-37.5a11.75,11.75,0,0,0-.32-4.47c-1-2.71-3.9-4.08-6.54-5.21-10.54-4.52-21-9.63-29.91-16.8s-16.42-16.62-19.6-27.64c-2.19-7.62-2-17.23,3.61-23.4,3.43-3.81,10.37-7.3,15.56-6.11,4.26,1,7.51,4.28,10.48,7.26q5.34,5.34,10.63,10.71c6.59,6.59,13.09,13.28,19.28,20.25,5.69,6.42,11,12.85,15,20.48a131.07,131.07,0,0,1,8.84,22.34c1.72,5.58,3.23,11.21,4.64,16.87,1.54,6.19,3,12.4,4.38,18.61s2.83,12.44,4.37,18.62c.25,1,.51,2,.75,3,.32,1.24.63,2.47,1,3.69.49,1.91,1,3.8,1.55,5.69s1.21,3.93,1.71,5.94a4.49,4.49,0,0,0,1.55,2.74,3.42,3.42,0,0,0,.46.26c1.39.64,2.78,1.3,4.16,2a183.2,183.2,0,0,0,17.56,7.12c0,.4,0,.79,0,1.18Z" transform="translate(-31.8 -38.08)"/><path class="cls-15" d="M212.69,348.45c8.23-2.65,16.45-5.32,24.76-7.69-4.28-7.82-9.78-14.52-15.7-21.18-6.74-7.6-13.83-14.89-21-22.08q-5.78-5.87-11.6-11.68c-3.23-3.24-6.79-6.85-11.43-7.92-5.66-1.3-13.22,2.51-17,6.66-6.08,6.74-6.33,17.22-3.94,25.52,3.47,12,11.61,22.31,21.37,30.13a112.1,112.1,0,0,0,20.44,12.71C203.32,351.48,208,350,212.69,348.45Z" transform="translate(-31.8 -38.08)"/><path class="cls-5" d="M181.63,204.68a7.81,7.81,0,0,0-.73-2.25c-1.69-3.32-5.77-5.37-9.64-5.41-4.68-.05-9.07,2.1-13.21,4.28q-8.25,4.33-16.28,9.06c-5.08,3-11,5.83-15.17,9.95-6.87,6.7-13.65,13.48-20.2,20.5-1.57,1.69-3.13,3.41-4.66,5.15-1.12,1.27-2.08,2.87-3.77,3.41-3.32,1.06-7.78,1.32-9,5.28-.79,2.51.24,5.69,1.32,8a3.89,3.89,0,0,0,2.55,2.4,5.25,5.25,0,0,0,3-.45c1.88-.73,4.08-.86,5.84-2s2.17-3.38,2.82-5.29a6.81,6.81,0,0,1,2.73-4c1.77-1.11,3.92-1.69,5.81-2.6a61.68,61.68,0,0,0,5.53-3,54.37,54.37,0,0,0,9.87-7.81c.76-.78,1.51-1.58,2.22-2.41a39.66,39.66,0,0,0,4.1-5.54,17.56,17.56,0,0,1,1.21-2.17c11,.25,20.65-6.51,30.79-10.66,3.48-1.42,7.13-2.58,10.15-4.82S182.19,208.4,181.63,204.68Z" transform="translate(-31.8 -38.08)"/><path class="cls-6" d="M207.1,173.47c-1-2.3-1.91-4.68-3-7a29.22,29.22,0,0,0-4.54-7.29,13.44,13.44,0,0,0-8.22-4,10.85,10.85,0,0,0-9.06,3.23,10.41,10.41,0,0,0-2.52,5.34c-.66,3.67-1,7.37-1.89,11a54.92,54.92,0,0,1-2.21,7.31c-1.7,4.42-3.74,6.7-7.74,9.19A45,45,0,0,0,154,205.59a60.18,60.18,0,0,0-8.06,22.35,99.1,99.1,0,0,0-1.27,14c-.36,15,1.73,30,.72,44.88,11.41,3.73,23.86.42,35.81,1.53,2.21.21,4.55.54,6.56-.4a2.81,2.81,0,0,0,1.12-.86,3.57,3.57,0,0,0,.52-1.53c1.63-9.44,0-19,.78-28.52.13-1.56.32-3.1.58-4.64,1.63-9.24,6.36-18.09,5.6-27.44a32.4,32.4,0,0,0-1.69-7.62c-.76-2.28-1.7-4.51-2.63-6.73a76.63,76.63,0,0,0-4.36-9.43,1.89,1.89,0,0,1-.28-.65,2,2,0,0,1,.19-1c1.09-2.81,2.61-5.83,2.61-8.91.13-.6.22-1.21.35-1.82a2.62,2.62,0,0,1,.68-1.44,2.75,2.75,0,0,1,2.88-.34c1,.39,1.87,1.12,2.85,1.6,1.54.76,5.49,1.42,6.16-.81a33.08,33.08,0,0,0,1.14-4.51c.24-1.48.08-3,.43-4.47a3.3,3.3,0,0,1,.87-1.71c.48-.44,1.23-.44,1.76-.81C208.26,175.61,207.45,174.25,207.1,173.47Z" transform="translate(-31.8 -38.08)"/><path d="M210.88,151.57a4.1,4.1,0,0,0-5.63.39c-.7.89-1.15,1.57-2.39,1.71-2,.22-4.23-.57-6.15-1.17-3.86-1.19-7.87-2.33-11.88-1.81a12.42,12.42,0,0,0-3.09.84,11.75,11.75,0,0,0-7.43,7.07c-1.15,3.12-.44,6.56-.2,9.83a15.65,15.65,0,0,1-.28,5.06c-.44,1.68-2,3-1.86,4.85a6.56,6.56,0,0,0,4.83,6c3.46.7,6.07-2.59,6.92-5.56a15.34,15.34,0,0,0-.19-7.9c-.56-2.26-1.74-4.61.09-6.64a3.62,3.62,0,0,1,3.29-1.11c2.25.43,3,2.8,3.35,4.79a27.47,27.47,0,0,1,.27,8,16.46,16.46,0,0,1-1.42,4.81,44.9,44.9,0,0,1-2.82,4.09,3.39,3.39,0,0,0-.56,1.95c.1,1.6,1.64,2.64,3,3.07s3.24.48,4.71,1.16c2,.91,3.26,2.86,5,4.11a4.83,4.83,0,0,0,2.58,1,2.71,2.71,0,0,0,2.4-1.17c.71-1.16.19-2.65.17-4a6.2,6.2,0,0,1,.23-1.72c.63-2.34,2.21-4.33,2.67-6.75.65-3.42-2.14-4.68-5.16-4.22-1.53.23-3.16.57-4.54-.12a5.19,5.19,0,0,1-2.42-3.72c-.52-2.41-.28-5-.94-7.31,2.54-1,5.5-3.51,6.49-4.15s2.64.35,3.92.36a9.33,9.33,0,0,0,8-4.79C213,156.32,212.9,153.25,210.88,151.57Z" transform="translate(-31.8 -38.08)"/><path class="cls-6" d="M187.46,294.44c-5,18-11.71,35.55-15,54-2.17,12.21-3.76,24.57-7.12,36.53-1.22,4.35-3.23,8.72-6.61,11.81s-8.84,3.56-13.24,3.73c-9,.37-18-.44-27-1.26-16.89-1.54-34-2.1-50.7-5.13-3.51-.63-7-1.37-10.48-2.26a16.4,16.4,0,0,1-3.18-1.11v-.07l-.06.07a3,3,0,0,1-.31.31c-.21.18-.43.34-.66.51l-.16.11c-.18.14-.37.27-.55.39s-.6.45-.9.66c-1.82,1.34-3.59,2.73-5.33,4.17-1.13,1-2.27,1.92-3.37,2.91-.46.41-.94.68-1,1.31a6.52,6.52,0,0,0,.07,2.11c.13,1,.26,2,.39,3.07a1.81,1.81,0,0,1,0,.77.61.61,0,0,1-.52.48c-.25,0-1.33-2.19-1.49-2.47-.52-.86-1-1.73-1.55-2.6s-1-1.73-1.48-2.6a2.44,2.44,0,0,1-.48-1.1,6.88,6.88,0,0,1,.48-1.43q1.88-5.64,3.92-11.23,1.61-4.42,3.25-8.83c.07-.21,3.21.26,3.47.29,2.5.26,5,.44,7.4.55l.43,0h.14a122.13,122.13,0,0,0,15.65-.28c1.9-.14,3.8-.34,5.73-.58,8.8-1.1,17.47-3,26.16-4.72,5.54-1.11,11.6-2.07,17-1.12a30.28,30.28,0,0,1,10.55,2.76c1.08.53,3.53,2.8,4.56,2.84,1.42.05,1.3-2.46,1.13-3.63-.6-4.06-1.3-8.12-1.94-12.19-.42-2.73-.83-5.44-1.22-8.16-2.49-17.39-4.79-36.06,3.22-52.43,2.28-4.64,5.4-8.85,8.28-13.12,2-2.89,3.32-6.33,5.46-9.1h39.25a1.67,1.67,0,0,1,0,.39c0,.42,0,.83.05,1.24C190.12,285,188.78,289.73,187.46,294.44Z" transform="translate(-31.8 -38.08)"/><path class="cls-16" d="M190.38,284.18c.08-1.28.13-2.56.16-3.84H145.15c-.53,1-1.09,1.9-1.7,2.8-4.84,7.16-9.83,14.25-12.51,22.64s-3.41,17.27-3.18,26a226.55,226.55,0,0,0,2.61,25.85q.67,4.63,1.4,9.27c.09.62.2,1.25.3,1.87,12.47,3.88,25.74,5.67,38.34,9,1.61-8.43,2.87-16.93,4.37-25.38,3.33-18.73,10.47-36.49,13.93-55.17A109.9,109.9,0,0,0,190.38,284.18Z" transform="translate(-31.8 -38.08)"/><path class="cls-17" d="M183.89,290.57l1.92-.73c1.6-.66,3.88-1.31,5-2.72a6.35,6.35,0,0,0,.86-3.55c.11-2-.26-4-.27-6s0-4,0-6.05a141.21,141.21,0,0,1,3.12-31.29c.09-.44.19-.88.29-1.32,1.18-5.27,2.68-10.64,2-16a4.08,4.08,0,0,0-.84-2.26c-1.42-1.58-3.36-2.32-4.44-4.25-1.24-2.22-1.72-4.81-2.38-7.25-1.49-5.49-4.39-11-9.35-13.76a17,17,0,0,0-14.28-.76c-13.35,5.1-18.14,21.78-19.8,34.54-1.15,8.9-1.19,17.91-2.08,26.84-.4,3.88-1,7.86-3,11.2-1.91,3.15-5,5.55-6.47,8.94-2.38,5.48.44,12.3,5.45,15.56,3.76,2.44,8.37,3.16,12.84,3.38a81.12,81.12,0,0,0,28.09-3.37C181.64,291.39,182.77,291,183.89,290.57Z" transform="translate(-31.8 -38.08)"/><path class="cls-6" d="M187,228.23a76.65,76.65,0,0,0-1.25-10.6c-.91-5-1.79-10.46-4.86-14.66-5.49-7.53-16.54-5.21-21.48,1.61-5.35,7.37-4.78,17.83-3.65,26.39.24,1.82.54,3.64.87,5.45,1.16,6.39,3.7,13.54,10.4,15.86s15-.21,17.6-7.16A43.14,43.14,0,0,0,187,228.23Z" transform="translate(-31.8 -38.08)"/><path class="cls-14" d="M195.07,225.53c-1.2-2.37-2.67-4.54-4-6.8s-2.54-4.79-4.17-7c-3.4-4.54-8.22-8.63-13.85-10-2.92-.69-6.08-.44-8.43,1.6-2.87,2.49-3.23,6.27-2.2,9.73a17.81,17.81,0,0,0,2.28,4.77c1.34,2,3,3.67,4.55,5.51,1.29,1.57,2,3.95,3.13,5.7a40.87,40.87,0,0,0,3.9,5.35c1.39,1.6,3.07,2.9,4.47,4.48s2.67,3.75,4.11,5.55c3.07,3.85,9,10.51,14.58,8.14a25.9,25.9,0,0,0,3.79-1.49,36.19,36.19,0,0,0,3.36-2.55q3.67-3,7.19-6.11a196.83,196.83,0,0,0,17.13-17.65c1.39-1.6,2.71-3.37,4.07-5.06.14-.17.67-.08.86-.08a7.87,7.87,0,0,0,5.24-1.3,4.5,4.5,0,0,0,1.36-1.78,8.08,8.08,0,0,1,1.16-2.4,3.16,3.16,0,0,1,2.79-1.2c.12,0,.25.05.34,0s.13-.28.1-.44c-.43-2.78-.89-5.62-2.48-8-.58-.88-1.55-2.39-2.66-2.59a3.08,3.08,0,0,0-1.09.06l-4.84.91a1.85,1.85,0,0,0-.86.3,1.87,1.87,0,0,0-.53.79c-.59,1.35-.94,2.78-1.48,4.14a8.34,8.34,0,0,1-1.44,2.41,15.18,15.18,0,0,1-2.34,1.88c-1.09.84-2.21,1.65-3.33,2.44-2.26,1.58-4.57,3.08-6.91,4.53-2.49,1.53-5,3-7.58,4.45-2.35,1.33-4.76,2.57-7.08,4s-4.7,2.37-6,4.76a18.06,18.06,0,0,1-1.42-3.5C196.2,227.88,195.65,226.7,195.07,225.53Z" transform="translate(-31.8 -38.08)"/><path class="cls-18" d="M243.42,447V436.09h0a1,1,0,0,1-.07-.18,146.07,146.07,0,0,0-6.54-13.14c.33,0,.71.08,1.08.08q3.28,0,6.55,0,6-.13,12.05-.68c.49,1.91,1,3.8,1.55,5.69s1.21,3.93,1.71,5.94a4.49,4.49,0,0,0,1.55,2.74,3.42,3.42,0,0,0,.46.26c1.39.64,2.78,1.3,4.16,2a183.2,183.2,0,0,0,17.56,7.12c0,.4,0,.79,0,1.18Z" transform="translate(-31.8 -38.08)"/><path class="cls-19" d="M243.42,447V436.09h0a1,1,0,0,1-.07-.18l.39.07a49.64,49.64,0,0,0,5,.83,47.55,47.55,0,0,0,10,0c.84-.08,1.67-.2,2.51-.32a3.42,3.42,0,0,0,.46.26c1.39.64,2.78,1.3,4.16,2a183.2,183.2,0,0,0,17.56,7.12c0,.4,0,.79,0,1.18Z" transform="translate(-31.8 -38.08)"/><path class="cls-7" d="M71.42,377.89c-.34,1.42-1,2.84-1.45,4.5a67,67,0,0,0-2.18,11.75c-3.51-.63-7-1.37-10.48-2.26a16.4,16.4,0,0,1-3.18-1.11v-.07l-.06.07a3,3,0,0,1-.31.31c-.21.18-.43.34-.66.51l-.16.11c-.18.14-.37.27-.55.39s-.6.45-.9.66c-1.82,1.34-3.59,2.73-5.33,4.17-1.13,1-2.27,1.92-3.37,2.91-.46.41-.94.68-1,1.31a6.52,6.52,0,0,0,.07,2.11c.13,1,.26,2,.39,3.07a1.81,1.81,0,0,1,0,.77.61.61,0,0,1-.52.48c-.25,0-1.33-2.19-1.49-2.47-.52-.86-1-1.73-1.55-2.6s-1-1.73-1.48-2.6a2.44,2.44,0,0,1-.48-1.1,6.88,6.88,0,0,1,.48-1.43q1.88-5.64,3.92-11.23,1.61-4.42,3.25-8.83c.07-.21,3.21.26,3.47.29,2.5.26,5,.44,7.4.55l.43,0h.14A122.13,122.13,0,0,0,71.42,377.89Z" transform="translate(-31.8 -38.08)"/><path class="cls-20" d="M55.77,378.17a49.91,49.91,0,0,0-1.8,9.36c-.08,1.19-.15,2.37-.21,3.55-.21.18-.43.34-.66.51l-.16.11c-.18.14-.37.27-.55.39s-.6.45-.9.66c-1.82,1.34-3.59,2.73-5.33,4.17-1.13,1-2.27,1.92-3.37,2.91-.46.41-.94.68-1,1.31a6.52,6.52,0,0,0,.07,2.11c.13,1,.26,2,.39,3.07a1.81,1.81,0,0,1,0,.77.61.61,0,0,1-.52.48c-.25,0-1.33-2.19-1.49-2.47-.52-.86-1-1.73-1.55-2.6s-1-1.73-1.48-2.6a2.44,2.44,0,0,1-.48-1.1,6.88,6.88,0,0,1,.48-1.43q1.88-5.64,3.92-11.23,1.61-4.42,3.25-8.83c.07-.21,3.21.26,3.47.29,2.5.26,5,.44,7.4.55l.43,0Z" transform="translate(-31.8 -38.08)"/></svg>